<svg width="390" height="42" viewBox="0 0 390 42" fill="none" xmlns="http://www.w3.org/2000/svg">
<rect width="390" height="42" fill="#154962"/>
<path d="M25.2517 26C24.8887 26 24.5206 25.9499 24.1475 25.8497C23.7743 25.7495 23.4214 25.5993 23.0886 25.3989C22.7659 25.1894 22.4785 24.9253 22.2264 24.6066C21.9743 24.2878 21.7878 23.9098 21.6667 23.4727L23.1794 22.9262C23.3105 23.4089 23.5475 23.8051 23.8903 24.1148C24.2433 24.4153 24.692 24.5656 25.2366 24.5656C25.5088 24.5656 25.766 24.5246 26.008 24.4426C26.25 24.3515 26.4568 24.2332 26.6282 24.0874C26.7996 23.9326 26.9358 23.7505 27.0366 23.541C27.1374 23.3315 27.1879 23.0993 27.1879 22.8443C27.1879 22.5893 27.1374 22.357 27.0366 22.1475C26.9458 21.929 26.8147 21.7423 26.6433 21.5874C26.4719 21.4326 26.2652 21.3142 26.0231 21.2322C25.7811 21.1412 25.5189 21.0956 25.2366 21.0956C24.9038 21.0956 24.6013 21.1639 24.329 21.3005C24.0567 21.4281 23.8298 21.5965 23.6483 21.806L21.9844 21.1366L22.6046 16.4372H28.2467V17.8169H24.0113L23.6332 20.2486L23.7239 20.276C23.9458 20.1211 24.2029 19.9891 24.4954 19.8798C24.7878 19.7705 25.1458 19.7158 25.5693 19.7158C26.003 19.7158 26.4164 19.7933 26.8097 19.9481C27.2131 20.0938 27.566 20.3033 27.8685 20.5765C28.1711 20.8497 28.4131 21.1776 28.5946 21.5601C28.7761 21.9426 28.8669 22.3661 28.8669 22.8306C28.8669 23.286 28.7761 23.7095 28.5946 24.1011C28.4131 24.4836 28.161 24.816 27.8383 25.0984C27.5156 25.3807 27.1324 25.6038 26.6887 25.7678C26.2551 25.9226 25.7761 26 25.2517 26Z" fill="#F2F3F3"/>
<path d="M31.4906 25.8634C31.1679 25.8634 30.8906 25.7632 30.6586 25.5628C30.4368 25.3534 30.3259 25.1029 30.3259 24.8115C30.3259 24.52 30.4368 24.2696 30.6586 24.0601C30.8906 23.8506 31.1679 23.7459 31.4906 23.7459C31.8133 23.7459 32.0906 23.8506 32.3225 24.0601C32.5545 24.2696 32.6704 24.52 32.6704 24.8115C32.6704 25.1029 32.5545 25.3534 32.3225 25.5628C32.0906 25.7632 31.8133 25.8634 31.4906 25.8634ZM31.4906 21.0683C31.1679 21.0683 30.8906 20.9681 30.6586 20.7678C30.4368 20.5583 30.3259 20.3078 30.3259 20.0164C30.3259 19.725 30.4368 19.4791 30.6586 19.2787C30.8906 19.0692 31.1679 18.9645 31.4906 18.9645C31.8133 18.9645 32.0906 19.0692 32.3225 19.2787C32.5545 19.4791 32.6704 19.725 32.6704 20.0164C32.6704 20.3078 32.5545 20.5583 32.3225 20.7678C32.0906 20.9681 31.8133 21.0683 31.4906 21.0683Z" fill="#F2F3F3"/>
<path d="M36.5576 25.7814V18.2678L34.6365 19.0191L34.0012 17.7213L37.0416 16.4372H38.2366V25.7814H36.5576Z" fill="#F2F3F3"/>
<path d="M43.5958 26C43.2328 26 42.8697 25.9545 42.5067 25.8634C42.1437 25.7723 41.8008 25.6311 41.4781 25.4399C41.1655 25.2395 40.8831 24.9891 40.631 24.6885C40.3789 24.388 40.1873 24.0282 40.0562 23.6093L41.6294 23.0219C41.7705 23.5137 42.0126 23.8916 42.3554 24.1557C42.6983 24.4199 43.1117 24.5519 43.5958 24.5519C43.8378 24.5519 44.0697 24.5155 44.2916 24.4426C44.5235 24.3698 44.7252 24.2696 44.8967 24.1421C45.0681 24.0055 45.2042 23.8506 45.3051 23.6776C45.4059 23.4954 45.4563 23.2951 45.4563 23.0765C45.4563 22.8579 45.4009 22.6576 45.2899 22.4754C45.1891 22.2933 45.0479 22.1384 44.8664 22.0109C44.6849 21.8834 44.4681 21.7832 44.216 21.7104C43.9739 21.6375 43.7118 21.6011 43.4294 21.6011H42.5369V20.194H43.3386C43.5807 20.194 43.8025 20.1667 44.0042 20.112C44.216 20.0483 44.4025 19.9617 44.5639 19.8525C44.7252 19.7432 44.8513 19.6066 44.942 19.4426C45.0328 19.2696 45.0782 19.0738 45.0782 18.8552C45.0782 18.4818 44.9269 18.1903 44.6244 17.9809C44.3319 17.7623 43.9588 17.653 43.505 17.653C43.2529 17.653 43.0311 17.6849 42.8395 17.7486C42.658 17.8124 42.5017 17.8989 42.3706 18.0082C42.2395 18.1175 42.1285 18.2404 42.0378 18.377C41.9571 18.5046 41.8916 18.6366 41.8411 18.7732L40.2982 18.1858C40.3789 17.9672 40.505 17.7441 40.6764 17.5164C40.8478 17.2796 41.0646 17.0656 41.3268 16.8743C41.589 16.6831 41.8966 16.5282 42.2495 16.4098C42.6126 16.2823 43.0311 16.2186 43.505 16.2186C43.9891 16.2186 44.4328 16.2823 44.8361 16.4098C45.2395 16.5373 45.5874 16.7149 45.8799 16.9426C46.1723 17.1703 46.3992 17.439 46.5605 17.7486C46.7219 18.0583 46.8026 18.3953 46.8026 18.7596C46.8026 19.0237 46.7622 19.265 46.6816 19.4836C46.611 19.7022 46.5101 19.898 46.379 20.071C46.2479 20.235 46.1017 20.3761 45.9404 20.4945C45.779 20.6129 45.6126 20.7131 45.4412 20.7951V20.877C45.6731 20.9681 45.895 21.0865 46.1068 21.2322C46.3185 21.3689 46.5 21.5328 46.6513 21.724C46.8127 21.9153 46.9387 22.1339 47.0295 22.3798C47.1202 22.6166 47.1656 22.8761 47.1656 23.1585C47.1656 23.5683 47.0748 23.9508 46.8933 24.306C46.7118 24.6521 46.4597 24.9526 46.137 25.2077C45.8244 25.4536 45.4513 25.6448 45.0177 25.7814C44.584 25.9271 44.1101 26 43.5958 26Z" fill="#F2F3F3"/>
<path d="M52.1819 25.7814V16H55.9332C56.4172 16 56.871 16.0729 57.2946 16.2186C57.7282 16.3643 58.1063 16.5692 58.429 16.8333C58.7517 17.0974 59.0038 17.4162 59.1854 17.7896C59.377 18.1539 59.4728 18.5592 59.4728 19.0055C59.4728 19.4426 59.377 19.8479 59.1854 20.2213C59.0038 20.5856 58.7517 20.8998 58.429 21.1639C58.1063 21.4281 57.7282 21.633 57.2946 21.7787C56.871 21.9244 56.4172 21.9973 55.9332 21.9973H53.8911V25.7814H52.1819ZM55.9786 20.5219C56.2609 20.5219 56.513 20.4809 56.7349 20.3989C56.9567 20.3078 57.1433 20.1894 57.2946 20.0437C57.4458 19.898 57.5618 19.7341 57.6425 19.5519C57.7231 19.3698 57.7635 19.1876 57.7635 19.0055C57.7635 18.8142 57.7231 18.6275 57.6425 18.4454C57.5618 18.2632 57.4458 18.1038 57.2946 17.9672C57.1433 17.8215 56.9567 17.7031 56.7349 17.612C56.513 17.5209 56.2609 17.4754 55.9786 17.4754H53.8911V20.5219H55.9786Z" fill="#F2F3F3"/>
<path d="M60.9268 16H62.6361L66.1756 21.5601H66.2664L69.8059 16H71.5001V25.7814H69.8059V20.4672L69.8967 18.8279H69.8059L66.7202 23.7049H65.7067L62.6361 18.8279H62.5453L62.6361 20.4672V25.7814H60.9268V16Z" fill="#F2F3F3"/>
<rect width="19.5" height="18" transform="translate(262.167 12)" fill="#154962"/>
<path fill-rule="evenodd" clip-rule="evenodd" d="M267.269 14.6639C267.557 14.3977 267.557 13.966 267.269 13.6997C266.98 13.4334 266.512 13.4334 266.224 13.6997L264.008 15.7452C263.72 16.0114 263.72 16.4431 264.008 16.7094C264.297 16.9757 264.764 16.9757 265.053 16.7094L267.269 14.6639ZM277.609 13.6997C277.321 13.4334 276.853 13.4334 276.565 13.6997C276.276 13.966 276.276 14.3977 276.565 14.6639L278.781 16.7094C279.069 16.9757 279.537 16.9757 279.825 16.7094C280.114 16.4431 280.114 16.0114 279.825 15.7452L277.609 13.6997ZM271.917 16.2273C268.653 16.2273 266.008 18.6694 266.008 21.6818C266.008 24.6943 268.653 27.1364 271.917 27.1364C275.18 27.1364 277.826 24.6943 277.826 21.6818C277.826 18.6694 275.18 16.2273 271.917 16.2273ZM264.53 21.6818C264.53 17.9162 267.837 14.8636 271.917 14.8636C275.996 14.8636 279.303 17.9162 279.303 21.6818C279.303 25.4474 275.996 28.5 271.917 28.5C267.837 28.5 264.53 25.4474 264.53 21.6818ZM271.917 17.5909C272.325 17.5909 272.655 17.8962 272.655 18.2727V21.317L274.542 22.4781C274.882 22.687 274.974 23.1103 274.747 23.4236C274.521 23.7369 274.062 23.8216 273.723 23.6128L271.836 22.4517C271.634 22.3271 271.467 22.1582 271.353 21.9603C271.238 21.7624 271.178 21.5415 271.178 21.317V18.2727C271.178 17.8962 271.509 17.5909 271.917 17.5909Z" fill="#F2F3F3"/>
<rect width="19.5" height="18" transform="translate(330.417 12)" fill="#154962"/>
<path fill-rule="evenodd" clip-rule="evenodd" d="M346.558 16.0001C346.558 15.503 346.122 15.1001 345.583 15.1001C345.045 15.1001 344.608 15.503 344.608 16.0001V26.0001C344.608 26.4972 345.045 26.9001 345.583 26.9001C346.122 26.9001 346.558 26.4972 346.558 26.0001V16.0001ZM339.3 21.2999C339.3 20.8028 338.863 20.3999 338.325 20.3999C337.786 20.3999 337.35 20.8028 337.35 21.2999V25.9999C337.35 26.497 337.786 26.8999 338.325 26.8999C338.863 26.8999 339.3 26.497 339.3 25.9999V21.2999ZM334.75 23.1001C335.289 23.1001 335.725 23.503 335.725 24.0001V26.0001C335.725 26.4972 335.289 26.9001 334.75 26.9001C334.212 26.9001 333.775 26.4972 333.775 26.0001V24.0001C333.775 23.503 334.212 23.1001 334.75 23.1001ZM342.983 18.7C342.983 18.203 342.547 17.8 342.008 17.8C341.47 17.8 341.033 18.203 341.033 18.7V26C341.033 26.4971 341.47 26.9 342.008 26.9C342.547 26.9 342.983 26.4971 342.983 26V18.7Z" fill="#F2F3F3"/>
<rect width="19.5" height="18" transform="translate(307.667 12)" fill="#154962"/>
<path fill-rule="evenodd" clip-rule="evenodd" d="M313.597 17.2325C314.776 16.7804 316.04 16.5484 317.317 16.55L317.318 16.55C320.003 16.55 322.432 17.5563 324.189 19.1847C324.527 19.4978 325.075 19.4988 325.414 19.1871C325.754 18.8753 325.755 18.3688 325.417 18.0557C323.349 16.1382 320.483 14.9501 317.319 14.95L317.319 14.95L317.318 15.75V14.95L317.319 14.95C315.813 14.9482 314.322 15.2218 312.932 15.7549C311.542 16.2881 310.28 17.0704 309.219 18.0564C308.881 18.3699 308.883 18.8764 309.223 19.1878C309.562 19.4992 310.111 19.4975 310.448 19.184C311.348 18.3479 312.418 17.6846 313.597 17.2325ZM314.787 20.0262C315.586 19.711 316.447 19.549 317.317 19.55H317.319C318.189 19.549 319.05 19.711 319.85 20.0262C320.65 20.3414 321.372 20.8033 321.973 21.3838C322.303 21.7033 322.852 21.7149 323.198 21.4097C323.544 21.1045 323.557 20.5981 323.226 20.2786C322.463 19.5415 321.546 18.955 320.53 18.5547C319.515 18.1546 318.422 17.9488 317.318 17.95L317.319 17.95L317.318 18.75L317.317 17.95L317.318 17.95C316.214 17.9488 315.121 18.1546 314.106 18.5547C313.09 18.955 312.173 19.5415 311.41 20.2786C311.08 20.5981 311.092 21.1045 311.438 21.4097C311.784 21.7149 312.333 21.7033 312.664 21.3838C313.264 20.8033 313.987 20.3414 314.787 20.0262ZM315.999 22.8122C316.413 22.6389 316.862 22.5495 317.317 22.55L317.318 22.55C318.276 22.55 319.135 22.9383 319.722 23.5556C320.037 23.8877 320.585 23.9207 320.945 23.6293C321.305 23.3379 321.34 22.8325 321.025 22.5003C320.123 21.5518 318.796 20.9501 317.319 20.95L317.319 20.95L317.318 21.75V20.95H317.319C316.617 20.9493 315.923 21.0874 315.283 21.3549C314.643 21.6225 314.073 22.0133 313.611 22.5013C313.296 22.8338 313.332 23.3392 313.693 23.6301C314.053 23.921 314.6 23.8872 314.916 23.5547C315.215 23.2387 315.584 22.9855 315.999 22.8122ZM318.5 25.2C318.5 25.7522 318.015 26.2 317.417 26.2C316.819 26.2 316.334 25.7522 316.334 25.2C316.334 24.6477 316.819 24.2 317.417 24.2C318.015 24.2 318.5 24.6477 318.5 25.2Z" fill="#F2F3F3"/>
<rect width="19.5" height="18" transform="translate(284.917 12)" fill="#154962"/>
<path fill-rule="evenodd" clip-rule="evenodd" d="M294.341 14.0694C294.588 13.958 294.883 13.9821 295.104 14.1315L299.792 17.3027C299.978 17.4288 300.086 17.6277 300.083 17.8378C300.08 18.048 299.966 18.2441 299.776 18.3656L295.652 21L299.776 23.6344C299.966 23.7559 300.08 23.952 300.083 24.1622C300.086 24.3723 299.978 24.5712 299.792 24.6973L295.104 27.8685C294.883 28.0179 294.588 28.042 294.341 27.9306C294.094 27.8191 293.938 27.5914 293.938 27.3423V22.0957L290.401 24.3555C290.072 24.5655 289.617 24.4954 289.384 24.199C289.151 23.9025 289.229 23.492 289.558 23.2821L293.129 21L289.558 18.7179C289.229 18.508 289.151 18.0975 289.384 17.801C289.617 17.5046 290.072 17.4345 290.401 17.6445L293.938 19.9043V14.6577C293.938 14.4086 294.094 14.1809 294.341 14.0694ZM295.396 22.4481L298.116 24.1863L295.396 26.0268V22.4481ZM295.396 19.5519V15.9732L298.116 17.8137L295.396 19.5519Z" fill="#F2F3F3"/>
<rect width="19.5" height="18" transform="translate(353.167 12)" fill="#154962"/>
<path fill-rule="evenodd" clip-rule="evenodd" d="M355.506 16.409C355.963 15.9871 356.583 15.75 357.229 15.75H366.979C367.626 15.75 368.246 15.9871 368.703 16.409C369.16 16.831 369.417 17.4033 369.417 18V18.1287C369.756 18.2395 370.068 18.4195 370.328 18.659C370.785 19.081 371.042 19.6533 371.042 20.25V21.75C371.042 22.3467 370.785 22.919 370.328 23.341C370.068 23.5805 369.756 23.7605 369.417 23.8713V24C369.417 24.5967 369.16 25.169 368.703 25.591C368.246 26.0129 367.626 26.25 366.979 26.25H357.229C356.583 26.25 355.963 26.0129 355.506 25.591C355.049 25.169 354.792 24.5967 354.792 24V18C354.792 17.4033 355.049 16.831 355.506 16.409ZM357.229 17.25C357.014 17.25 356.807 17.329 356.655 17.4697C356.502 17.6103 356.417 17.8011 356.417 18V24C356.417 24.1989 356.502 24.3897 356.655 24.5303C356.807 24.671 357.014 24.75 357.229 24.75H366.979C367.195 24.75 367.401 24.671 367.554 24.5303C367.706 24.3897 367.792 24.1989 367.792 24V23.25C367.792 22.8358 368.156 22.5 368.604 22.5C368.82 22.5 369.026 22.421 369.179 22.2803C369.331 22.1397 369.417 21.9489 369.417 21.75V20.25C369.417 20.0511 369.331 19.8603 369.179 19.7197C369.026 19.579 368.82 19.5 368.604 19.5C368.156 19.5 367.792 19.1642 367.792 18.75V18C367.792 17.8011 367.706 17.6103 367.554 17.4697C367.401 17.329 367.195 17.25 366.979 17.25H357.229ZM358.854 18.75C359.303 18.75 359.667 19.0858 359.667 19.5V22.5C359.667 22.9142 359.303 23.25 358.854 23.25C358.406 23.25 358.042 22.9142 358.042 22.5V19.5C358.042 19.0858 358.406 18.75 358.854 18.75ZM362.104 18.75C362.553 18.75 362.917 19.0858 362.917 19.5V22.5C362.917 22.9142 362.553 23.25 362.104 23.25C361.656 23.25 361.292 22.9142 361.292 22.5V19.5C361.292 19.0858 361.656 18.75 362.104 18.75ZM365.354 18.75C365.803 18.75 366.167 19.0858 366.167 19.5V22.5C366.167 22.9142 365.803 23.25 365.354 23.25C364.906 23.25 364.542 22.9142 364.542 22.5V19.5C364.542 19.0858 364.906 18.75 365.354 18.75Z" fill="#F2F3F3"/>
</svg>
