<svg width="293" height="57" viewBox="0 0 293 57" fill="none" xmlns="http://www.w3.org/2000/svg">
<g filter="url(#filter0_d_1_2700)">
<rect x="4" width="285" height="49" rx="18" fill="#E97B0C" shape-rendering="crispEdges"/>
<path d="M90.9648 34.3398C89.668 34.3398 88.4688 34.1484 87.3672 33.7656C86.2734 33.3828 85.332 32.8125 84.543 32.0547C83.7539 31.2969 83.1406 30.3516 82.7031 29.2188C82.2734 28.0859 82.0586 26.7773 82.0586 25.293C82.0586 23.9102 82.2656 22.6562 82.6797 21.5312C83.0938 20.4062 83.6953 19.4414 84.4844 18.6367C85.2422 17.8633 86.1797 17.2656 87.2969 16.8438C88.4219 16.4219 89.6484 16.2109 90.9766 16.2109C91.7109 16.2109 92.3711 16.2539 92.957 16.3398C93.5508 16.418 94.0977 16.5234 94.5977 16.6562C95.1211 16.8047 95.5938 16.9727 96.0156 17.1602C96.4453 17.3398 96.8203 17.5078 97.1406 17.6641V21.8945H96.625C96.4062 21.707 96.1289 21.4844 95.793 21.2266C95.4648 20.9688 95.0898 20.7148 94.668 20.4648C94.2383 20.2148 93.7734 20.0039 93.2734 19.832C92.7734 19.6602 92.2383 19.5742 91.668 19.5742C91.0352 19.5742 90.4336 19.6758 89.8633 19.8789C89.293 20.0742 88.7656 20.4023 88.2812 20.8633C87.8203 21.3086 87.4453 21.8984 87.1562 22.6328C86.875 23.3672 86.7344 24.2578 86.7344 25.3047C86.7344 26.3984 86.8867 27.3125 87.1914 28.0469C87.5039 28.7812 87.8945 29.3594 88.3633 29.7812C88.8398 30.2109 89.3711 30.5195 89.957 30.707C90.543 30.8867 91.1211 30.9766 91.6914 30.9766C92.2383 30.9766 92.7773 30.8945 93.3086 30.7305C93.8477 30.5664 94.3438 30.3438 94.7969 30.0625C95.1797 29.8359 95.5352 29.5938 95.8633 29.3359C96.1914 29.0781 96.4609 28.8555 96.6719 28.668H97.1406V32.8398C96.7031 33.0352 96.2852 33.2188 95.8867 33.3906C95.4883 33.5625 95.0703 33.7109 94.6328 33.8359C94.0625 34 93.5273 34.125 93.0273 34.2109C92.5273 34.2969 91.8398 34.3398 90.9648 34.3398ZM108.18 30.5664V27.8242C107.609 27.8711 106.992 27.9375 106.328 28.0234C105.664 28.1016 105.16 28.1953 104.816 28.3047C104.395 28.4375 104.07 28.6328 103.844 28.8906C103.625 29.1406 103.516 29.4727 103.516 29.8867C103.516 30.1602 103.539 30.3828 103.586 30.5547C103.633 30.7266 103.75 30.8906 103.938 31.0469C104.117 31.2031 104.332 31.3203 104.582 31.3984C104.832 31.4688 105.223 31.5039 105.754 31.5039C106.176 31.5039 106.602 31.418 107.031 31.2461C107.469 31.0742 107.852 30.8477 108.18 30.5664ZM108.18 32.6055C107.953 32.7773 107.672 32.9844 107.336 33.2266C107 33.4688 106.684 33.6602 106.387 33.8008C105.973 33.9883 105.543 34.125 105.098 34.2109C104.652 34.3047 104.164 34.3516 103.633 34.3516C102.383 34.3516 101.336 33.9648 100.492 33.1914C99.6484 32.418 99.2266 31.4297 99.2266 30.2266C99.2266 29.2656 99.4414 28.4805 99.8711 27.8711C100.301 27.2617 100.91 26.7812 101.699 26.4297C102.48 26.0781 103.449 25.8281 104.605 25.6797C105.762 25.5312 106.961 25.4219 108.203 25.3516V25.2812C108.203 24.5547 107.906 24.0547 107.312 23.7812C106.719 23.5 105.844 23.3594 104.688 23.3594C103.992 23.3594 103.25 23.4844 102.461 23.7344C101.672 23.9766 101.105 24.1641 100.762 24.2969H100.375V21.1211C100.82 21.0039 101.543 20.8672 102.543 20.7109C103.551 20.5469 104.559 20.4648 105.566 20.4648C107.965 20.4648 109.695 20.8359 110.758 21.5781C111.828 22.3125 112.363 23.4688 112.363 25.0469V34H108.18V32.6055ZM129.039 34H124.82V32.6289C124.094 33.2227 123.414 33.6602 122.781 33.9414C122.148 34.2227 121.418 34.3633 120.59 34.3633C118.988 34.3633 117.707 33.7461 116.746 32.5117C115.785 31.2773 115.305 29.6133 115.305 27.5195C115.305 26.4023 115.465 25.4141 115.785 24.5547C116.113 23.6875 116.559 22.9453 117.121 22.3281C117.652 21.7422 118.297 21.2891 119.055 20.9688C119.812 20.6406 120.57 20.4766 121.328 20.4766C122.117 20.4766 122.762 20.5625 123.262 20.7344C123.77 20.8984 124.289 21.1094 124.82 21.3672V15.7656H129.039V34ZM124.82 30.3672V23.9102C124.523 23.7852 124.211 23.6953 123.883 23.6406C123.555 23.5859 123.254 23.5586 122.98 23.5586C121.871 23.5586 121.039 23.9062 120.484 24.6016C119.93 25.2891 119.652 26.2461 119.652 27.4727C119.652 28.7617 119.875 29.6992 120.32 30.2852C120.766 30.8633 121.48 31.1523 122.465 31.1523C122.848 31.1523 123.254 31.082 123.684 30.9414C124.113 30.793 124.492 30.6016 124.82 30.3672ZM140.992 30.5664V27.8242C140.422 27.8711 139.805 27.9375 139.141 28.0234C138.477 28.1016 137.973 28.1953 137.629 28.3047C137.207 28.4375 136.883 28.6328 136.656 28.8906C136.438 29.1406 136.328 29.4727 136.328 29.8867C136.328 30.1602 136.352 30.3828 136.398 30.5547C136.445 30.7266 136.562 30.8906 136.75 31.0469C136.93 31.2031 137.145 31.3203 137.395 31.3984C137.645 31.4688 138.035 31.5039 138.566 31.5039C138.988 31.5039 139.414 31.418 139.844 31.2461C140.281 31.0742 140.664 30.8477 140.992 30.5664ZM140.992 32.6055C140.766 32.7773 140.484 32.9844 140.148 33.2266C139.812 33.4688 139.496 33.6602 139.199 33.8008C138.785 33.9883 138.355 34.125 137.91 34.2109C137.465 34.3047 136.977 34.3516 136.445 34.3516C135.195 34.3516 134.148 33.9648 133.305 33.1914C132.461 32.418 132.039 31.4297 132.039 30.2266C132.039 29.2656 132.254 28.4805 132.684 27.8711C133.113 27.2617 133.723 26.7812 134.512 26.4297C135.293 26.0781 136.262 25.8281 137.418 25.6797C138.574 25.5312 139.773 25.4219 141.016 25.3516V25.2812C141.016 24.5547 140.719 24.0547 140.125 23.7812C139.531 23.5 138.656 23.3594 137.5 23.3594C136.805 23.3594 136.062 23.4844 135.273 23.7344C134.484 23.9766 133.918 24.1641 133.574 24.2969H133.188V21.1211C133.633 21.0039 134.355 20.8672 135.355 20.7109C136.363 20.5469 137.371 20.4648 138.379 20.4648C140.777 20.4648 142.508 20.8359 143.57 21.5781C144.641 22.3125 145.176 23.4688 145.176 25.0469V34H140.992V32.6055ZM160.492 29.8281C160.492 31.1875 159.883 32.2852 158.664 33.1211C157.445 33.9492 155.777 34.3633 153.66 34.3633C152.488 34.3633 151.426 34.2539 150.473 34.0352C149.52 33.8164 148.754 33.5742 148.176 33.3086V29.8398H148.562C148.773 29.9883 149.016 30.1523 149.289 30.332C149.57 30.5039 149.965 30.6914 150.473 30.8945C150.91 31.0742 151.406 31.2305 151.961 31.3633C152.516 31.4883 153.109 31.5508 153.742 31.5508C154.57 31.5508 155.184 31.4609 155.582 31.2812C155.98 31.0938 156.18 30.8203 156.18 30.4609C156.18 30.1406 156.062 29.9102 155.828 29.7695C155.594 29.6211 155.148 29.4805 154.492 29.3477C154.18 29.2773 153.754 29.2031 153.215 29.125C152.684 29.0391 152.199 28.9375 151.762 28.8203C150.566 28.5078 149.68 28.0234 149.102 27.3672C148.523 26.7031 148.234 25.8789 148.234 24.8945C148.234 23.6289 148.832 22.5781 150.027 21.7422C151.23 20.8984 152.871 20.4766 154.949 20.4766C155.934 20.4766 156.875 20.5781 157.773 20.7812C158.68 20.9766 159.387 21.1875 159.895 21.4141V24.7422H159.531C158.906 24.3125 158.191 23.9648 157.387 23.6992C156.59 23.4258 155.781 23.2891 154.961 23.2891C154.281 23.2891 153.707 23.3828 153.238 23.5703C152.777 23.7578 152.547 24.0234 152.547 24.3672C152.547 24.6797 152.652 24.918 152.863 25.082C153.074 25.2461 153.57 25.4102 154.352 25.5742C154.781 25.6602 155.242 25.7461 155.734 25.832C156.234 25.9102 156.734 26.0117 157.234 26.1367C158.344 26.4258 159.164 26.8828 159.695 27.5078C160.227 28.125 160.492 28.8984 160.492 29.8281ZM171.719 33.8828C171.266 34 170.785 34.0898 170.277 34.1523C169.77 34.2227 169.148 34.2578 168.414 34.2578C166.773 34.2578 165.551 33.9258 164.746 33.2617C163.949 32.5977 163.551 31.4609 163.551 29.8516V23.6992H161.816V20.8398H163.551V17.0781H167.77V20.8398H171.719V23.6992H167.77V28.3633C167.77 28.8242 167.773 29.2266 167.781 29.5703C167.789 29.9141 167.852 30.2227 167.969 30.4961C168.078 30.7695 168.27 30.9883 168.543 31.1523C168.824 31.3086 169.23 31.3867 169.762 31.3867C169.98 31.3867 170.266 31.3398 170.617 31.2461C170.977 31.1523 171.227 31.0664 171.367 30.9883H171.719V33.8828ZM183.789 24.8594H183.414C183.234 24.7969 182.945 24.75 182.547 24.7188C182.148 24.6875 181.816 24.6719 181.551 24.6719C180.949 24.6719 180.418 24.7109 179.957 24.7891C179.496 24.8672 179 25 178.469 25.1875V34H174.25V20.8398H178.469V22.7734C179.398 21.9766 180.207 21.4492 180.895 21.1914C181.582 20.9258 182.215 20.793 182.793 20.793C182.941 20.793 183.109 20.7969 183.297 20.8047C183.484 20.8125 183.648 20.8242 183.789 20.8398V24.8594ZM194.148 30.5664V27.8242C193.578 27.8711 192.961 27.9375 192.297 28.0234C191.633 28.1016 191.129 28.1953 190.785 28.3047C190.363 28.4375 190.039 28.6328 189.812 28.8906C189.594 29.1406 189.484 29.4727 189.484 29.8867C189.484 30.1602 189.508 30.3828 189.555 30.5547C189.602 30.7266 189.719 30.8906 189.906 31.0469C190.086 31.2031 190.301 31.3203 190.551 31.3984C190.801 31.4688 191.191 31.5039 191.723 31.5039C192.145 31.5039 192.57 31.418 193 31.2461C193.438 31.0742 193.82 30.8477 194.148 30.5664ZM194.148 32.6055C193.922 32.7773 193.641 32.9844 193.305 33.2266C192.969 33.4688 192.652 33.6602 192.355 33.8008C191.941 33.9883 191.512 34.125 191.066 34.2109C190.621 34.3047 190.133 34.3516 189.602 34.3516C188.352 34.3516 187.305 33.9648 186.461 33.1914C185.617 32.418 185.195 31.4297 185.195 30.2266C185.195 29.2656 185.41 28.4805 185.84 27.8711C186.27 27.2617 186.879 26.7812 187.668 26.4297C188.449 26.0781 189.418 25.8281 190.574 25.6797C191.73 25.5312 192.93 25.4219 194.172 25.3516V25.2812C194.172 24.5547 193.875 24.0547 193.281 23.7812C192.688 23.5 191.812 23.3594 190.656 23.3594C189.961 23.3594 189.219 23.4844 188.43 23.7344C187.641 23.9766 187.074 24.1641 186.73 24.2969H186.344V21.1211C186.789 21.0039 187.512 20.8672 188.512 20.7109C189.52 20.5469 190.527 20.4648 191.535 20.4648C193.934 20.4648 195.664 20.8359 196.727 21.5781C197.797 22.3125 198.332 23.4688 198.332 25.0469V34H194.148V32.6055ZM211.75 24.8594H211.375C211.195 24.7969 210.906 24.75 210.508 24.7188C210.109 24.6875 209.777 24.6719 209.512 24.6719C208.91 24.6719 208.379 24.7109 207.918 24.7891C207.457 24.8672 206.961 25 206.43 25.1875V34H202.211V20.8398H206.43V22.7734C207.359 21.9766 208.168 21.4492 208.855 21.1914C209.543 20.9258 210.176 20.793 210.754 20.793C210.902 20.793 211.07 20.7969 211.258 20.8047C211.445 20.8125 211.609 20.8242 211.75 20.8398V24.8594Z" fill="#E6E8E9"/>
</g>
<defs>
<filter id="filter0_d_1_2700" x="0" y="0" width="293" height="57" filterUnits="userSpaceOnUse" color-interpolation-filters="sRGB">
<feFlood flood-opacity="0" result="BackgroundImageFix"/>
<feColorMatrix in="SourceAlpha" type="matrix" values="0 0 0 0 0 0 0 0 0 0 0 0 0 0 0 0 0 0 127 0" result="hardAlpha"/>
<feOffset dy="4"/>
<feGaussianBlur stdDeviation="2"/>
<feComposite in2="hardAlpha" operator="out"/>
<feColorMatrix type="matrix" values="0 0 0 0 0 0 0 0 0 0 0 0 0 0 0 0 0 0 0.25 0"/>
<feBlend mode="normal" in2="BackgroundImageFix" result="effect1_dropShadow_1_2700"/>
<feBlend mode="normal" in="SourceGraphic" in2="effect1_dropShadow_1_2700" result="shape"/>
</filter>
</defs>
</svg>
