<svg width="33" height="33" viewBox="0 0 33 33" fill="none" xmlns="http://www.w3.org/2000/svg">
<path d="M15.9976 32.2744C7.16223 32.1201 0.125008 24.8329 0.279229 15.9975C0.43345 7.16223 7.72071 0.125003 16.556 0.279224C25.3914 0.433445 32.4286 7.7207 32.2744 16.556C32.1201 25.3913 24.8329 32.4286 15.9976 32.2744ZM16.0441 29.6081C23.407 29.7366 29.4796 23.8724 29.6081 16.5095C29.7366 9.14661 23.8724 3.074 16.5095 2.94549C9.14661 2.81697 3.07401 8.68121 2.94549 16.0441C2.81697 23.407 8.68122 29.4796 16.0441 29.6081ZM9.0309 23.5801L14.0481 13.9689L23.8285 9.29019L18.8114 18.9014L9.0309 23.5801ZM17.3793 17.5182L20.6471 12.3618L15.3804 15.4484L17.3793 17.5182Z" fill="white"/>
</svg>
