<svg width="28" height="28" viewBox="0 0 28 28" fill="none" xmlns="http://www.w3.org/2000/svg">
<path d="M14 27C16.5712 27 19.0846 26.2376 21.2224 24.8091C23.3602 23.3806 25.0265 21.3503 26.0104 18.9749C26.9944 16.5994 27.2518 13.9856 26.7502 11.4638C26.2486 8.94208 25.0105 6.6257 23.1924 4.80762C21.3743 2.98953 19.0579 1.7514 16.5362 1.2498C14.0144 0.748189 11.4006 1.00563 9.02511 1.98957C6.64967 2.97351 4.61935 4.63975 3.19089 6.77759C1.76244 8.91543 1 11.4288 1 14C1 16.1493 1.52 18.1744 2.44444 19.9612L1 27L8.03878 25.5556C9.82411 26.4786 11.8521 27 14 27Z" stroke="white" stroke-width="1.5" stroke-linecap="round" stroke-linejoin="round"/>
</svg>
