<svg width="33" height="30" viewBox="0 0 33 30" fill="none" xmlns="http://www.w3.org/2000/svg">
<path d="M16.5482 2.39752C18.4296 0.745136 20.8801 -0.110557 23.3811 0.011466C25.8822 0.133489 28.2376 1.22366 29.9493 3.05134C31.6609 4.87903 32.5944 7.30087 32.5523 9.80454C32.5103 12.3082 31.4959 14.6973 29.7238 16.4664L21.6358 24.556L16.5467 29.642L5.27542 18.3723L3.37108 16.4649C1.60435 14.6946 0.594586 12.3071 0.554925 9.8064C0.515264 7.30568 1.44881 4.88737 3.15851 3.06195C4.8682 1.23653 7.22028 0.146829 9.71825 0.0228596C12.2162 -0.10111 14.6646 0.750354 16.5467 2.39752M21.6327 20.1791L27.533 14.2772C28.141 13.6693 28.6232 12.9476 28.9522 12.1533C29.2812 11.359 29.4505 10.5077 29.4505 9.64797C29.4505 8.78823 29.2812 7.93692 28.9522 7.14263C28.6232 6.34834 28.141 5.62663 27.533 5.0187C26.9251 4.41078 26.2034 3.92855 25.4091 3.59954C24.6148 3.27054 23.7635 3.1012 22.9038 3.1012C22.044 3.1012 21.1927 3.27054 20.3984 3.59954C19.6041 3.92855 18.8824 4.41078 18.2745 5.0187L16.5467 6.74655L14.8173 5.01716C13.5895 3.7894 11.9243 3.09965 10.188 3.09965C8.4517 3.09965 6.78651 3.7894 5.55875 5.01716C4.33099 6.24491 3.64125 7.91011 3.64125 9.64642C3.64125 11.3827 4.33099 13.0479 5.55875 14.2757L7.46619 16.1831L16.5467 25.2636L21.6327 20.1776V20.1791Z" fill="white"/>
</svg>
