<svg width="31" height="30" viewBox="0 0 31 30" fill="none" xmlns="http://www.w3.org/2000/svg">
<path d="M28.6503 1.92003C26.9913 0.261003 24.6485 0 21.8823 0H9.19247C6.45958 0 4.11681 0.260308 2.45708 1.92003C0.798054 3.57907 0.553711 5.90587 0.553711 8.6228V21.1828C0.553711 23.965 0.79736 26.2752 2.45708 27.9342C4.11612 29.5932 6.45958 29.8542 9.24106 29.8542H21.8823C24.6485 29.8542 26.9913 29.5939 28.6503 27.9342C30.3101 26.2752 30.5537 23.965 30.5537 21.1828V8.67139C30.5537 5.88921 30.3101 3.56241 28.6503 1.92003ZM27.9347 8.21602V21.6222C27.9347 23.3139 27.7229 25.0382 26.7477 26.0308C25.755 27.0068 23.9974 27.2345 22.3217 27.2345H8.7857C7.11001 27.2345 5.3531 27.0068 4.37712 26.0308C3.38448 25.0382 3.17276 23.3139 3.17276 21.6216V8.26531C3.17276 6.55769 3.38448 4.80008 4.36046 3.8241C5.3531 2.83146 7.12597 2.62044 8.83429 2.62044H22.3217C23.9974 2.62044 25.7543 2.84812 26.747 3.8241C27.7229 4.81674 27.9347 6.54033 27.9347 8.21602ZM15.5537 23.6068C16.2048 23.6068 16.7254 23.1022 16.7254 22.4518V16.0905H23.0867C23.7371 16.0905 24.2577 15.5373 24.2577 14.9354C24.2577 14.301 23.7371 13.7637 23.0867 13.7637H16.7254V7.38651C16.7254 6.73539 16.2048 6.23143 15.5537 6.23143C15.4014 6.22919 15.2502 6.25753 15.109 6.31478C14.9679 6.37204 14.8397 6.45703 14.7319 6.56474C14.6242 6.67245 14.5392 6.80068 14.482 6.94184C14.4247 7.08299 14.3964 7.2342 14.3986 7.38651V13.7637H8.0374C7.38628 13.7637 6.86566 14.301 6.86566 14.9354C6.86566 15.5373 7.38628 16.0905 8.0374 16.0905H14.3986V22.4518C14.3986 23.1022 14.9033 23.6068 15.5537 23.6068Z" fill="white"/>
</svg>
