<svg width="260" height="263" viewBox="0 0 260 263" fill="none" xmlns="http://www.w3.org/2000/svg">
<g opacity="0.4">
<path d="M257.7 137.066C258.255 132.56 257.924 127.99 256.726 123.612C255.497 119.317 253.216 115.296 249.972 112.623C249.18 111.957 248.331 111.36 247.436 110.841C244.833 109.374 241.866 108.678 238.883 108.833C234.98 109.047 231.22 110.52 227.804 112.646C227.597 112.777 227.359 112.92 227.181 113.044L226.688 113.413C226.367 113.68 226.046 113.929 225.737 114.221C225.096 114.804 224.5 115.435 223.955 116.109C222.757 117.567 221.695 119.132 220.783 120.784C218.787 124.433 217.056 128.22 215.604 132.118C212.497 140.184 209.765 148.785 206.694 157.487C205.933 159.666 205.141 161.844 204.318 164.021C203.504 166.219 202.625 168.417 201.71 170.627C199.864 175.231 197.668 179.688 195.14 183.956C194.451 185.079 193.715 186.207 192.859 187.336C192.432 187.93 191.962 188.476 191.469 189.035C190.976 189.593 190.46 190.098 189.931 190.591C187.884 192.467 185.585 194.046 183.1 195.284C178.395 197.695 173.703 198.99 169.177 200.333C164.65 201.675 160.219 202.869 155.972 204.455C151.766 205.979 147.745 207.972 143.985 210.395C140.33 212.765 137.099 215.733 134.428 219.174C131.772 222.62 129.711 226.445 128.802 230.288C128.346 232.122 128.16 234.013 128.25 235.901C128.341 237.592 128.761 239.248 129.486 240.778C130.131 242.134 131.051 243.341 132.185 244.324C133.32 245.308 134.645 246.046 136.079 246.492C137.541 246.967 139.068 247.209 140.605 247.211C142.249 247.212 143.886 247.012 145.482 246.617C145.892 246.516 146.308 246.397 146.717 246.273L148.191 245.833C149.169 245.524 150.135 245.196 151.089 244.847C153.002 244.134 154.879 243.35 156.738 242.471C160.463 240.689 164.181 238.438 168.309 236.044C172.646 233.461 177.164 231.196 181.829 229.266C186.683 227.354 191.709 225.911 196.839 224.96C197.475 224.823 198.104 224.74 198.74 224.633L200.439 224.36C201.377 224.2 202.328 224.015 203.284 223.808C205.185 223.386 207.08 222.869 208.927 222.263C216.346 219.822 223.029 215.955 228.113 210.496C230.735 207.717 232.998 204.62 234.849 201.277C235.836 199.533 236.711 197.727 237.469 195.872C238.273 193.95 238.975 191.987 239.572 189.991C240.166 187.96 240.706 185.869 241.14 183.724C241.348 182.721 241.567 181.402 241.793 180.214C242.019 179.026 242.292 177.796 242.577 176.602C243.716 171.879 245.181 167.241 246.961 162.721C248.689 158.248 250.703 153.959 252.723 149.748C253.733 147.639 254.742 145.548 255.693 143.451C256.646 141.423 257.321 139.275 257.7 137.066ZM259.482 137.256C259.334 138.467 259.068 139.661 258.686 140.82C258.342 141.966 257.932 143.071 257.534 144.17C256.726 146.374 255.889 148.53 255.158 150.704C254.427 152.878 253.727 155.088 253.15 157.297C252.574 159.507 252.135 161.752 251.766 163.986C251.082 168.43 250.84 172.93 251.042 177.422C251.083 178.533 251.166 179.644 251.25 180.743C251.333 181.841 251.475 182.869 251.576 184.182C251.789 186.7 251.864 189.229 251.802 191.755C251.69 197.015 250.826 202.232 249.236 207.247C247.562 212.492 245 217.41 241.662 221.788C238.266 226.176 234.205 230.008 229.628 233.145C225.139 236.225 220.256 238.687 215.111 240.463C212.584 241.347 210.005 242.073 207.389 242.637C206.07 242.928 204.745 243.166 203.391 243.362L200.118 243.843C196.091 244.443 192.121 245.379 188.25 246.641C184.242 248.009 180.333 249.648 176.548 251.547C172.491 253.508 168.084 255.765 163.278 257.636C160.864 258.589 158.402 259.414 155.901 260.107C154.641 260.451 153.382 260.754 152.117 261.04L150.21 261.426C149.491 261.556 148.767 261.675 148.036 261.764C145.053 262.16 142.029 262.128 139.055 261.669C135.964 261.199 132.98 260.194 130.234 258.699C127.431 257.169 124.968 255.085 122.993 252.575C121.038 250.104 119.636 247.241 118.883 244.182C118.17 241.29 118.008 238.289 118.407 235.337C118.765 232.587 119.521 229.904 120.653 227.372C122.821 222.723 125.779 218.486 129.396 214.85C131.124 213.067 132.97 211.402 134.921 209.866C136.86 208.364 138.885 206.976 140.985 205.708C149.343 200.659 158.502 197.767 166.908 194.114C171.095 192.332 175.128 190.264 178.295 187.74C179.782 186.561 181.092 185.175 182.185 183.623C182.429 183.261 182.66 182.887 182.874 182.513C183.088 182.138 183.272 181.77 183.468 181.36C183.866 180.541 184.24 179.638 184.597 178.687C185.316 176.792 185.939 174.725 186.521 172.617C187.104 170.508 187.662 168.346 188.232 166.154L189.907 159.525C190.472 157.297 191.048 155.052 191.689 152.807C194.172 143.825 197.035 134.708 201.49 125.809C203.745 121.186 206.536 116.843 209.806 112.872C210.691 111.856 211.588 110.859 212.61 109.902C213.614 108.913 214.684 107.992 215.812 107.146C216.978 106.257 218.214 105.463 219.506 104.77C220.165 104.407 220.843 104.082 221.538 103.796L222.595 103.38C222.94 103.255 223.237 103.166 223.557 103.059C226.107 102.226 228.74 101.673 231.41 101.408C234.118 101.139 236.851 101.261 239.524 101.77C242.186 102.28 244.738 103.248 247.068 104.633C248.204 105.308 249.276 106.085 250.269 106.956C251.251 107.8 252.159 108.726 252.984 109.724C256.063 113.614 258.132 118.206 259.007 123.089C259.859 127.762 260.019 132.536 259.482 137.256Z" fill="#060713"/>
<path d="M80.4864 21.9961C85.7461 21.1714 90.8734 19.6534 95.7344 17.4817C100.641 15.3908 105.363 12.8663 110.121 10.3002C112.497 9.035 114.873 7.72226 117.38 6.49268C119.885 5.19854 122.464 4.05021 125.102 3.05342C127.945 1.96802 130.912 1.23975 133.935 0.885323C137.402 0.497692 140.912 0.903943 144.199 2.07332C145.066 2.3822 145.904 2.798 146.759 3.1841C147.614 3.5702 148.375 4.11668 149.171 4.61564C149.967 5.1146 150.656 5.71454 151.374 6.29666C152.093 6.87878 152.705 7.53218 153.358 8.16182C155.773 10.6473 157.814 13.4706 159.417 16.5432C160.978 19.5548 162.163 22.7467 162.945 26.0472C163.674 29.1514 164.147 32.3102 164.359 35.4918C164.674 41.321 164.567 47.1654 164.038 52.9791L163.379 61.0932C163.272 62.4178 163.201 63.7246 163.112 65.0254L162.999 66.9619L162.922 68.8746C162.834 71.3519 162.871 73.832 163.035 76.3055C163.172 78.6529 163.512 80.9841 164.05 83.2731C164.666 85.6666 165.489 88.0019 166.509 90.2526C167.555 92.6286 168.755 95.0046 170.044 97.4163C172.634 102.222 175.574 107.021 178.437 111.975L180.563 115.729C181.253 117.006 181.93 118.283 182.583 119.602C183.944 122.251 185.096 125.001 186.028 127.829C187.036 130.765 187.569 133.843 187.608 136.947C187.592 140.116 186.856 143.239 185.458 146.083C184.776 147.448 183.964 148.745 183.035 149.956L181.615 151.684C181.128 152.231 180.623 152.724 180.13 153.246C178.1 155.285 175.887 157.132 173.519 158.765C171.108 160.384 168.546 161.765 165.868 162.887C165.191 163.148 164.531 163.481 163.842 163.689L161.775 164.39C160.379 164.788 158.978 165.186 157.546 165.477C151.819 166.664 145.947 166.993 140.124 166.451C137.214 166.215 134.32 165.808 131.458 165.233C128.583 164.699 125.761 163.95 122.957 163.136C121.573 162.697 120.166 162.293 118.799 161.8L116.732 161.081L114.695 160.309C111.974 159.252 109.303 158.097 106.682 156.846C105.369 156.216 104.074 155.563 102.773 154.915C101.472 154.268 100.207 153.549 98.942 152.842C97.6767 152.136 96.4115 151.423 95.176 150.668C93.9405 149.914 92.6931 149.171 91.4813 148.381L84.5018 143.861C83.3673 143.131 82.2149 142.436 81.0744 141.717L79.3578 140.654L77.6292 139.626C68.465 134.144 58.9728 129.231 49.2063 124.913C44.2999 122.733 39.3459 120.648 34.1069 118.278C31.4933 117.09 28.8084 115.789 26.0344 114.238C23.0898 112.591 20.3057 110.672 17.7184 108.506C14.9567 106.166 12.5071 103.481 10.43 100.517C8.45947 97.6918 6.79483 94.6652 5.46418 91.4881C4.77514 89.9734 4.27618 88.4766 3.68218 86.9678C3.41488 86.2194 3.1951 85.4769 2.95156 84.7344C2.70802 83.9919 2.4823 83.2909 2.28034 82.4653L1.68634 80.0893L1.3834 78.9013L1.15173 77.6776C0.813134 76.0457 0.569188 74.3956 0.421116 72.7356C0.343896 71.898 0.260735 71.0605 0.207275 70.2229V67.6509V66.3679C0.207275 65.9402 0.278556 65.5066 0.314196 65.073L0.569615 62.495C0.700295 61.6396 0.902255 60.7783 1.06857 59.9289L1.34181 58.6578C1.44873 58.236 1.59129 57.8202 1.71603 57.4044C1.97739 56.5728 2.23281 55.7472 2.51199 54.9274C2.79117 54.1077 3.19509 53.3415 3.55149 52.5514C4.97032 49.5124 6.84525 46.708 9.11133 44.2354L9.91918 43.3266C10.2043 43.0415 10.5132 42.7742 10.7805 42.495C11.3745 41.9485 11.9328 41.3902 12.5268 40.8734C13.7564 39.9171 14.9444 38.8954 16.2275 38.0816C18.6957 36.4164 21.3008 34.9638 24.0148 33.7395C26.6317 32.5703 29.313 31.551 32.0457 30.6863C37.3577 29.037 42.7677 27.7216 48.2441 26.7481C49.5984 26.5105 50.9408 26.2313 52.2951 26.0353C53.6495 25.8393 54.98 25.5541 56.3343 25.3641C57.6887 25.174 59.0311 24.9542 60.3735 24.7701L64.4068 24.1761L80.4864 21.9961ZM80.7834 23.7781C75.4374 24.5503 70.1567 25.5185 64.9354 26.7481L62.9812 27.2173L61.0388 27.7341C59.7439 28.0668 58.4609 28.4588 57.1838 28.8449C54.6177 29.5933 52.0991 30.4725 49.6103 31.3991C44.6844 33.216 39.9328 35.4744 35.4137 38.1469C33.2286 39.4429 31.1222 40.867 29.1054 42.4119C27.1938 43.9068 25.406 45.5536 23.7594 47.3361C22.9159 48.1737 22.2506 49.1181 21.5141 49.9972L20.5577 51.3872C20.4033 51.6129 20.237 51.8386 20.0885 52.0703L19.6845 52.789C18.6097 54.6002 17.7901 56.5511 17.2491 58.5865C17.1363 59.0854 17.0234 59.5785 16.8868 60.0596L16.6611 61.5684C16.6254 61.8178 16.572 62.0614 16.5542 62.3168L16.5185 63.089C16.5185 63.5998 16.4532 64.0988 16.4532 64.6156L16.5066 66.1778C16.5066 66.4392 16.5066 66.6886 16.5363 66.9559L16.6314 67.7578L16.8036 69.3438L17.1244 70.9654C17.5565 73.2103 18.1541 75.4201 18.9123 77.5767C19.0727 78.1231 19.3044 78.7053 19.5063 79.2814C19.7083 79.8576 19.9459 80.4397 20.1835 80.9981C20.6706 82.0851 21.122 83.2137 21.6507 84.2176C22.5784 86.1677 23.6987 88.0203 24.9949 89.7477C26.208 91.3194 27.6038 92.7411 29.1529 93.9829C32.2536 96.5015 36.5185 98.7349 41.324 100.974C43.7 102.109 46.1888 103.243 48.7252 104.414C51.2616 105.584 53.792 106.79 56.3403 108.067C66.6186 113.16 76.5236 118.973 85.9809 125.465L87.7629 126.653L89.5449 127.888C90.7329 128.72 91.8852 129.528 93.0376 130.377L99.7557 135.337C101.9 136.905 104.068 138.426 106.248 139.929L109.557 142.115C110.668 142.822 111.772 143.534 112.895 144.229C115.146 145.578 117.398 146.944 119.708 148.168L121.431 149.106L123.171 149.991C124.33 150.585 125.512 151.126 126.688 151.69C131.358 153.86 136.228 155.57 141.229 156.798C143.694 157.38 146.197 157.787 148.719 158.016C151.212 158.254 153.722 158.254 156.215 158.016C161.184 157.612 166.002 156.113 170.323 153.626C172.477 152.351 174.485 150.843 176.31 149.13C176.756 148.69 177.237 148.263 177.659 147.817L178.847 146.457C179.578 145.53 180.218 144.536 180.76 143.487C181.829 141.406 182.364 139.091 182.316 136.751C182.234 134.278 181.715 131.838 180.783 129.546C179.8 127.113 178.607 124.77 177.219 122.542C175.806 120.273 174.249 118.046 172.586 115.854C169.283 111.464 165.672 107.182 162.138 102.62C160.356 100.321 158.633 97.9449 156.994 95.4026C155.259 92.7781 153.753 90.0098 152.491 87.1282C149.883 80.9387 148.874 74.6839 148.44 68.6607C147.656 56.65 149.188 45.5957 148.969 35.6878C148.862 30.7457 148.321 26.1838 146.884 22.1446C146.159 20.1126 145.183 18.179 143.979 16.3887C142.96 14.7921 141.619 13.4263 140.041 12.3792C138.317 11.3109 136.373 10.6468 134.356 10.4368C131.983 10.1866 129.588 10.2385 127.228 10.5913C124.667 10.9605 122.128 11.4741 119.625 12.1297C117.077 12.8247 114.511 13.591 111.968 14.4463C106.86 16.1095 101.787 18.0103 96.6313 19.7092C91.4743 21.5105 86.1722 22.8659 80.7834 23.7603V23.7781Z" fill="#060713"/>
<path d="M105.161 224.069C103.441 224.508 101.692 224.825 99.928 225.019C99.0845 225.132 98.2707 225.192 97.4451 225.263C96.6194 225.334 95.8175 225.358 95.0215 225.37C93.4177 225.435 91.8615 225.37 90.3052 225.34C84.1216 225.097 78.2113 224.152 72.3842 223.249L70.3171 222.934L69.4023 222.804L68.4697 222.732C67.8401 222.667 67.1867 222.691 66.5452 222.673C65.9036 222.655 65.2324 222.727 64.5612 222.78C63.89 222.833 63.2247 222.899 62.5416 223.006C61.8585 223.113 61.1873 223.214 60.4982 223.35C59.138 223.623 57.748 223.944 56.3759 224.307C50.8279 225.768 45.3453 227.936 39.2271 229.338C35.995 230.11 32.6605 230.363 29.3489 230.086C27.5635 229.908 25.8051 229.521 24.1098 228.934C23.2531 228.636 22.4142 228.288 21.5972 227.894C21.1873 227.692 20.7656 227.496 20.3735 227.3L19.1855 226.617C17.6688 225.679 16.2359 224.612 14.9028 223.427C14.2197 222.833 13.5782 222.127 12.9188 221.461C12.2595 220.796 11.7308 220.03 11.1368 219.293C10.5429 218.557 10.1092 217.784 9.60433 217C9.34891 216.614 9.14695 216.216 8.93905 215.812L8.30347 214.624L7.99459 214.03L7.73917 213.436L7.22833 212.207C6.88208 211.397 6.58261 210.568 6.33139 209.724C5.3159 206.46 4.71715 203.081 4.54939 199.667C4.39735 196.367 4.57844 193.059 5.08993 189.795C5.61218 186.561 6.46202 183.389 7.62631 180.327C7.92331 179.578 8.22031 178.83 8.54701 178.087C8.87371 177.345 9.24199 176.626 9.59245 175.901C9.94291 175.177 10.3171 174.464 10.721 173.769C11.125 173.074 11.4992 172.367 11.9447 171.684C15.3378 166.301 19.5459 161.478 24.4187 157.386C26.7689 155.398 29.3005 153.634 31.9803 152.118C34.6265 150.628 37.4761 149.534 40.4389 148.869C43.4799 148.236 46.6256 148.309 49.634 149.082C52.6575 149.906 55.555 151.137 58.247 152.741C63.6103 155.954 68.6301 159.708 73.2277 163.944C75.5265 166.017 77.6827 168.174 79.7617 170.383C79.9564 170.601 80.1712 170.8 80.4032 170.977L80.9378 171.446C81.3536 171.726 81.6684 172.04 82.1258 172.308L82.7198 172.724C82.9336 172.854 83.1534 172.973 83.3554 173.116C83.7474 173.395 84.2464 173.621 84.6622 173.888C86.7057 175.011 88.8187 176.003 90.9883 176.858L94.772 178.349L96.7976 179.139L98.9122 180.018C100.344 180.612 101.853 181.319 103.385 182.073C105.027 182.918 106.614 183.864 108.137 184.907C109.859 186.087 111.451 187.445 112.889 188.958C114.45 190.602 115.781 192.45 116.845 194.452L117.255 195.212L117.605 195.991C117.831 196.513 118.069 197.036 118.271 197.571C118.65 198.611 118.961 199.674 119.203 200.754L119.536 202.34L119.738 203.885C119.858 204.888 119.923 205.898 119.934 206.908C119.934 207.176 119.934 207.378 119.934 207.68C119.934 208.09 119.934 208.488 119.886 208.868C119.838 209.705 119.716 210.536 119.524 211.351C119.477 211.553 119.429 211.761 119.376 211.945L119.174 212.581C119.037 212.997 118.882 213.407 118.728 213.822C118.377 214.618 117.968 215.386 117.504 216.121C117.267 216.472 117.023 216.81 116.774 217.143C116.649 217.315 116.518 217.487 116.394 217.636L115.996 218.075C115.734 218.361 115.461 218.669 115.188 218.919C114.915 219.168 114.647 219.4 114.368 219.638C114.089 219.875 113.81 220.095 113.531 220.303L112.723 220.861C112.449 221.034 112.164 221.23 111.903 221.378L111.113 221.812C109.226 222.798 107.228 223.556 105.161 224.069Z" fill="#060713"/>
<path d="M189.42 71.5654C189.088 69.6496 188.951 67.7053 189.01 65.762C189.064 62.0436 189.901 58.634 190.822 55.3254C191.73 52.0193 192.891 48.7883 194.297 45.661C195.729 42.5205 197.536 39.5647 199.678 36.858C201.909 34.0385 204.506 31.5295 207.4 29.3973C210.641 27.1287 214.368 25.6499 218.282 25.0789C220.357 24.7681 222.463 24.7241 224.549 24.9483C226.559 25.1728 228.524 25.6995 230.376 26.5105C232.022 27.25 233.562 28.2048 234.956 29.3498C236.209 30.3863 237.4 31.4971 238.52 32.6762C239.098 33.3054 239.615 33.9875 240.064 34.7136C240.493 35.4621 240.859 36.2449 241.157 37.054C241.728 38.7276 242.126 40.4552 242.345 42.2099C242.845 45.8514 242.887 49.5411 242.47 53.193C242.062 56.6951 240.914 60.0704 239.102 63.0949C237.342 65.9646 235.023 68.4513 232.283 70.4071C229.562 72.391 226.343 73.8107 223.236 75.1056C220.13 76.4005 216.988 77.5529 214.065 78.931C211.143 80.3091 208.321 81.8416 204.763 82.9524C203.812 83.25 202.836 83.4608 201.846 83.582C200.694 83.7352 199.525 83.7172 198.378 83.5285C196.839 83.2218 195.407 82.5219 194.22 81.4971C193.934 81.2357 193.625 80.9506 193.376 80.6714C193.127 80.3922 192.883 80.0774 192.645 79.7982C192.236 79.2412 191.867 78.6556 191.541 78.0459C191.243 77.4845 190.975 76.9074 190.739 76.3174C190.537 75.7828 190.311 75.1947 190.145 74.6779L189.913 73.8642L189.717 73.0801C189.598 72.5989 189.515 72.0822 189.42 71.5654Z" fill="#060713"/>
</g>
<path d="M67.5431 248.132C73.996 248.132 79.2271 242.901 79.2271 236.448C79.2271 229.995 73.996 224.764 67.5431 224.764C61.0902 224.764 55.8591 229.995 55.8591 236.448C55.8591 242.901 61.0902 248.132 67.5431 248.132Z" fill="#060713"/>
<path d="M71.7783 229.516C71.8069 230.077 71.6549 230.633 71.3447 231.102C71.0302 231.584 70.5909 231.972 70.0735 232.225C69.5413 232.492 68.927 232.545 68.3569 232.373C67.8167 232.199 67.3544 231.842 67.05 231.363C67.465 231.673 67.944 231.886 68.4519 231.987C68.6899 232.026 68.9326 232.026 69.1706 231.987C69.4081 231.949 69.6385 231.875 69.8537 231.767C69.9606 231.714 70.0735 231.654 70.1804 231.589C70.2851 231.523 70.3863 231.452 70.4834 231.375C70.6831 231.229 70.8645 231.06 71.0239 230.87C71.3598 230.471 71.616 230.012 71.7783 229.516Z" fill="#3E99B4"/>
<path d="M67.6204 230.187C67.5659 229.799 67.65 229.403 67.858 229.07C68.0713 228.726 68.3783 228.45 68.7431 228.274C68.9295 228.178 69.1335 228.12 69.3428 228.105C69.5521 228.09 69.7624 228.117 69.9608 228.185C70.3369 228.311 70.6499 228.577 70.834 228.928C70.5378 228.747 70.2088 228.626 69.8658 228.571C69.5556 228.534 69.2413 228.59 68.9629 228.732C68.3485 229.031 67.8693 229.551 67.6204 230.187Z" fill="#3E99B4"/>
<path d="M67.543 241.942C67.6769 242.301 67.6769 242.695 67.543 243.053C67.4177 243.431 67.1817 243.762 66.8659 244.004C66.7037 244.129 66.5184 244.22 66.3206 244.273C66.1228 244.326 65.9165 244.34 65.7135 244.312C65.332 244.257 64.9835 244.065 64.7334 243.772C65.0552 243.877 65.3929 243.926 65.7313 243.914C66.0324 243.893 66.3201 243.781 66.557 243.594C66.7992 243.404 67.0011 243.168 67.151 242.899C67.3366 242.605 67.4692 242.282 67.543 241.942Z" fill="#3E99B4"/>
<path d="M65.1197 243.267C65.0556 243.148 65.0157 243.017 65.0025 242.883C64.9892 242.748 65.0028 242.612 65.0425 242.483C65.1222 242.211 65.2866 241.972 65.5117 241.8C65.6291 241.709 65.7642 241.643 65.9085 241.607C66.0527 241.571 66.2029 241.566 66.3493 241.592C66.4831 241.615 66.611 241.665 66.7253 241.738C66.8395 241.812 66.9379 241.907 67.0146 242.02C66.7897 241.975 66.5594 241.965 66.3315 241.99C66.1467 242.02 65.9717 242.093 65.8206 242.204C65.4794 242.474 65.2337 242.847 65.1197 243.267Z" fill="#3E99B4"/>
<path d="M63.3316 231.429C63.4335 231.525 63.5153 231.641 63.5724 231.77C63.6295 231.898 63.6607 232.037 63.6642 232.177C63.6666 232.33 63.6384 232.482 63.5813 232.623C63.5242 232.765 63.4393 232.894 63.3316 233.003C63.222 233.115 63.0876 233.201 62.9391 233.252C62.7906 233.304 62.6321 233.32 62.4762 233.3C62.2005 233.267 61.9434 233.144 61.7456 232.949C61.9883 232.954 62.2309 232.936 62.4703 232.896C62.6595 232.87 62.8349 232.782 62.9692 232.646C63.1097 232.504 63.2118 232.328 63.2662 232.135C63.3264 231.905 63.3485 231.666 63.3316 231.429Z" fill="#3E99B4"/>
<path d="M61.8822 232.563C61.7967 232.506 61.7258 232.429 61.6753 232.339C61.6247 232.25 61.5959 232.149 61.5911 232.046C61.5881 231.937 61.607 231.828 61.6468 231.726C61.6866 231.624 61.7465 231.531 61.8228 231.452C61.9049 231.368 62.0061 231.305 62.1179 231.269C62.2296 231.233 62.3485 231.225 62.4643 231.244C62.6639 231.276 62.843 231.385 62.9633 231.547C62.7968 231.569 62.632 231.603 62.4702 231.648C62.3621 231.674 62.2633 231.73 62.1851 231.809C62.1024 231.895 62.036 231.996 61.9891 232.106C61.9334 232.253 61.8975 232.407 61.8822 232.563Z" fill="#3E99B4"/>
<path d="M71.4516 243.748C71.3836 243.872 71.2912 243.98 71.1799 244.067C71.0685 244.154 70.9407 244.217 70.8042 244.253C70.6571 244.293 70.5036 244.303 70.3527 244.282C70.2017 244.262 70.0563 244.211 69.9251 244.134C69.789 244.055 69.6735 243.945 69.5879 243.813C69.5022 243.681 69.4488 243.53 69.432 243.374C69.3903 243.098 69.4471 242.816 69.5924 242.578C69.6443 242.815 69.7199 243.046 69.8181 243.267C69.8886 243.446 70.016 243.596 70.1805 243.695C70.3522 243.795 70.5462 243.85 70.7448 243.855C70.9845 243.857 71.2231 243.821 71.4516 243.748Z" fill="#3E99B4"/>
<path d="M69.9963 242.62C70.0325 242.523 70.0904 242.435 70.1656 242.364C70.2407 242.293 70.3312 242.24 70.43 242.21C70.5373 242.177 70.6504 242.166 70.7619 242.18C70.8734 242.193 70.9809 242.229 71.0774 242.287C71.1813 242.349 71.2683 242.435 71.3305 242.539C71.3927 242.643 71.4282 242.76 71.4338 242.881C71.444 242.981 71.434 243.082 71.4044 243.178C71.3748 243.274 71.3263 243.363 71.2616 243.439C71.2005 243.282 71.1291 243.129 71.0477 242.982C70.9937 242.884 70.9135 242.804 70.8161 242.75C70.7156 242.686 70.6018 242.645 70.4834 242.631C70.3225 242.604 70.1584 242.6 69.9963 242.62Z" fill="#3E99B4"/>
<path d="M75.4551 235.521C75.4684 235.662 75.4531 235.804 75.4103 235.939C75.3674 236.073 75.2978 236.198 75.2056 236.305C75.1066 236.422 74.9851 236.517 74.8483 236.586C74.7115 236.654 74.5623 236.694 74.4097 236.703C74.2527 236.712 74.0957 236.685 73.9506 236.624C73.8056 236.564 73.6761 236.471 73.5721 236.353C73.3826 236.148 73.2711 235.883 73.2573 235.604C73.4394 235.773 73.6385 235.922 73.8513 236.05C74.0119 236.153 74.2011 236.203 74.3919 236.192C74.5908 236.18 74.7832 236.117 74.9502 236.008C75.1462 235.877 75.3172 235.712 75.4551 235.521Z" fill="#3E99B4"/>
<path d="M73.6198 235.408C73.5899 235.307 73.5857 235.199 73.6074 235.096C73.6292 234.992 73.6763 234.895 73.7445 234.814C73.8154 234.723 73.9052 234.648 74.0077 234.595C74.1102 234.542 74.2231 234.511 74.3385 234.506C74.4519 234.502 74.5647 234.525 74.6678 234.572C74.7709 234.619 74.8615 234.69 74.9325 234.779C74.9972 234.856 75.0458 234.945 75.0754 235.04C75.105 235.136 75.115 235.237 75.1048 235.337C74.9648 235.244 74.8201 235.159 74.6711 235.082C74.571 235.034 74.461 235.012 74.3504 235.016C74.2311 235.025 74.1144 235.055 74.0059 235.105C73.8648 235.19 73.7351 235.291 73.6198 235.408Z" fill="#3E99B4"/>
<path d="M59.9756 238.17C59.9886 238.311 59.9731 238.453 59.9303 238.588C59.8874 238.722 59.818 238.847 59.7262 238.955C59.5224 239.185 59.2371 239.328 58.9302 239.353C58.774 239.362 58.6178 239.335 58.4736 239.274C58.3294 239.213 58.2011 239.12 58.0986 239.002C57.9097 238.794 57.7967 238.528 57.7778 238.248C57.9612 238.415 58.1601 238.564 58.3718 238.693C58.5342 238.798 58.7252 238.85 58.9183 238.842C59.1169 238.828 59.3089 238.765 59.4767 238.658C59.6668 238.522 59.8351 238.357 59.9756 238.17Z" fill="#3E99B4"/>
<path d="M58.1164 238.058C58.0891 237.956 58.0862 237.849 58.1078 237.746C58.1295 237.643 58.1752 237.546 58.2412 237.464C58.3129 237.374 58.403 237.3 58.5055 237.248C58.6079 237.196 58.7203 237.166 58.8352 237.161C58.9482 237.156 59.0608 237.177 59.1639 237.224C59.267 237.27 59.3579 237.34 59.4292 237.428C59.4938 237.506 59.5422 237.596 59.5718 237.693C59.6014 237.79 59.6114 237.892 59.6014 237.992C59.4643 237.895 59.3193 237.81 59.1678 237.737C59.0698 237.684 58.9581 237.661 58.8471 237.672C58.7291 237.677 58.6136 237.707 58.5085 237.761C58.3635 237.839 58.2313 237.939 58.1164 238.058Z" fill="#3E99B4"/>
<path d="M234.494 28.5621L234.548 24.5367L237.22 27.5275L240.107 26.6297L238.696 29.1924L240.053 30.6134L237.952 30.8275L237.916 33.5448L235.607 31.6302L233.732 33.188L233.941 30.8929L231.203 29.6264L234.494 28.5621Z" fill="#E97B0C"/>
<path d="M231.959 233.244L235.655 234.85L231.864 236.158L231.578 239.161L229.757 236.871L227.918 237.573L228.531 235.557L226.037 234.469L228.697 233.084L227.983 230.753L230.025 231.835L232.25 229.802L231.959 233.244Z" fill="#E97B0C"/>
<path d="M47.9557 241.23L44.3132 246.242L43.605 240.124L39.1829 238.697L43.23 236.723L42.7836 233.732L45.6107 235.325L48.0688 231.936L49.277 236.384L53.0206 236.086L50.7113 238.792L53.0325 242.805L47.9557 241.23Z" fill="#E97B0C"/>
<path d="M213.235 195.838L215.389 200.137L217.532 196.029L221.609 196.73L219.436 192.414L222.472 189.53L218.181 189.684L217.324 185.487L215.062 189.833L209.354 189.399L212.717 192.871L209.604 195.256L213.235 195.838Z" fill="#E97B0C"/>
<path d="M113.597 28.461L114.633 26.7248L112.687 26.8973L112.014 25.2919L110.973 27.04L109.264 26.6178L110.288 28.1043L108.997 29.3589L111.05 29.1746L112.187 31.2972L112.657 29.3173L114.21 29.8821L113.597 28.461Z" fill="#E97B0C"/>
<path d="M226.858 120.088L226.501 118.946L225.811 119.874L224.84 119.535L225.203 120.682L224.346 121.271L225.4 121.402L225.448 122.466L226.174 121.485L227.554 121.818L226.864 120.837L227.727 120.373L226.858 120.088Z" fill="#E97B0C"/>
<path d="M242.315 186.706L243.201 185.909L242.077 185.665L241.981 184.643L241.089 185.445L240.196 184.904L240.511 185.921L239.565 186.397L240.749 186.658L241.017 188.055L241.63 187.021L242.41 187.615L242.315 186.706Z" fill="#E97B0C"/>
<path d="M216.841 48.2372L217.728 47.4404L216.609 47.1967L216.508 46.174L215.615 46.9767L214.729 46.4356L215.044 47.4523L214.092 47.934L215.282 48.1896L215.55 49.5869L216.163 48.5583L216.937 49.1469L216.841 48.2372Z" fill="#E97B0C"/>
<path d="M59.1391 212.077L59.1808 210.882L58.2226 211.524L57.4191 210.882L57.3774 212.083L56.3716 212.344L57.3239 212.826L57.0084 213.843L58.0202 213.165L59.2105 213.944L58.8951 212.784L59.8593 212.642L59.1391 212.077Z" fill="#E97B0C"/>
<path d="M81.6722 17.5622L81.0651 16.5395L80.6069 17.5919L79.5832 17.4909L80.1962 18.5195L79.4939 19.2865L80.5533 19.1735L80.839 20.2022L81.3211 19.0844L82.7435 19.0962L81.8508 18.2936L82.5828 17.6454L81.6722 17.5622Z" fill="#E97B0C"/>
<path d="M25.2262 178.655L26.9522 175.319L23.3752 175.854L21.9468 172.953L20.2089 176.306L16.995 175.718L19.0602 178.358L16.7986 180.819L20.5839 180.254L22.9348 184.06L23.5835 180.343L26.5237 181.218L25.2262 178.655Z" fill="#E97B0C"/>
<path d="M42.5159 113.309L45.0216 113.821L44.0098 111.579L45.6465 110.104L43.129 109.587L42.9207 107.375L41.5696 109.218L39.5341 108.196L40.6054 110.568L38.5461 112.81L41.1054 112.548L41.0756 114.629L42.5159 113.309Z" fill="#E97B0C"/>
<path d="M49.3364 40.5253C49.14 40.2934 37.7127 34.9956 27.3627 42.9037C17.84 50.1577 14.5487 63.7917 15.8104 64.1187C17.3579 64.5171 21.5955 58.0122 29.7315 54.4387C32.6181 53.1723 37.2068 54.4387 37.2068 54.4387L49.3364 40.5253Z" fill="#E97B0C"/>
<path opacity="0.1" d="M37.2128 54.4208C35.8521 54.0608 34.4538 53.8612 33.0466 53.8263C34.8321 50.0744 38.1889 43.076 40.3672 38.5452C43.4683 38.525 46.5355 39.191 49.3484 40.4955L37.2128 54.4208Z" fill="black"/>
<path d="M68.1617 62.7095C68.3582 62.9414 71.7328 75.071 62.21 83.978C53.5146 92.1477 39.534 93.1942 39.3971 91.892C39.2543 90.3045 46.3725 87.1888 51.2351 79.7564C52.9611 77.1224 52.4611 72.3894 52.4611 72.3894L68.1617 62.7095Z" fill="#E97B0C"/>
<path opacity="0.1" d="M68.6079 71.9317C63.7394 73.3468 56.27 75.4992 52.3181 76.6884C52.5355 75.2701 52.5834 73.831 52.461 72.4014L68.1616 62.7215C68.9957 65.7199 69.1482 68.8667 68.6079 71.9317Z" fill="black"/>
<path d="M41.5576 77.5328L30.3982 64.3863C30.3982 64.3863 36.219 48.7961 50.0388 38.3194C56.9488 33.0989 65.049 29.1865 72.3042 26.6C82.3149 23.0325 90.6949 21.9741 91.9924 23.5022C93.2899 25.0303 90.8914 33.1168 85.7193 42.4043C81.9876 49.1291 76.7977 56.4723 70.4829 62.4182C57.907 74.3517 41.5576 77.5328 41.5576 77.5328Z" fill="#3E99B4"/>
<path d="M68.6974 56.7993C67.1993 58.0757 65.3559 58.8795 63.4005 59.1089C61.445 59.3383 59.4654 58.9831 57.7121 58.0881C55.9588 57.1931 54.5107 55.7987 53.5509 54.0813C52.5912 52.3638 52.163 50.4005 52.3205 48.4399C52.478 46.4792 53.2141 44.6093 54.4358 43.0667C55.6574 41.5242 57.3096 40.3783 59.1833 39.7742C61.057 39.17 63.068 39.1347 64.9618 39.6727C66.8556 40.2108 68.5471 41.2979 69.8222 42.7967C71.5281 44.8041 72.3676 47.4054 72.1567 50.0303C71.9459 52.6551 70.7019 55.0893 68.6974 56.7993Z" fill="#404040"/>
<path d="M69.2091 55.8776C67.7081 57.1497 65.8631 57.9484 63.9076 58.1729C61.952 58.3973 59.9738 58.0373 58.2231 57.1384C56.4724 56.2396 55.0278 54.8422 54.0722 53.123C53.1165 51.4039 52.6926 49.4402 52.8541 47.4804C53.0157 45.5206 53.7554 43.6526 54.9797 42.1128C56.2039 40.573 57.8578 39.4305 59.7321 38.8298C61.6065 38.2291 63.617 38.1973 65.5094 38.7383C67.4019 39.2792 69.0912 40.3688 70.3638 41.869C71.2091 42.8644 71.8498 44.0164 72.2493 45.2592C72.6488 46.5021 72.7992 47.8114 72.692 49.1123C72.5847 50.4133 72.222 51.6803 71.6243 52.8412C71.0267 54.002 70.206 55.0338 69.2091 55.8776Z" fill="#E97B0C"/>
<path d="M67.2451 53.5468C66.2045 54.4301 64.925 54.9853 63.5686 55.1421C62.2121 55.299 60.8396 55.0504 59.6245 54.4279C58.4094 53.8055 57.4064 52.837 56.7423 51.645C56.0782 50.453 55.7829 49.0911 55.8936 47.7314C56.0043 46.3717 56.5161 45.0753 57.3643 44.0063C58.2125 42.9372 59.359 42.1434 60.6588 41.7253C61.9586 41.3072 63.3533 41.2835 64.6666 41.6573C65.9798 42.0311 67.1526 42.7856 68.0367 43.8253C69.222 45.2193 69.8045 47.0267 69.6561 48.8498C69.5076 50.6729 68.6404 52.3625 67.2451 53.5468Z" fill="#C4C7C8"/>
<path d="M67.2451 53.5469C66.5949 54.102 65.8458 54.5297 65.037 54.8074L59.49 54.3555C58.7382 53.9488 58.0683 53.4065 57.5141 52.7561C57.1122 52.2775 56.7759 51.7477 56.5142 51.1804L68.489 52.1615C68.138 52.6766 67.7197 53.1425 67.2451 53.5469Z" fill="#060713"/>
<path d="M68.6378 44.6457L57.5854 43.7479C57.8074 43.4925 58.0481 43.254 58.3056 43.0344C59.701 41.8502 61.5102 41.2683 63.3351 41.4166C65.16 41.5649 66.8511 42.4313 68.0366 43.8252C68.2546 44.0854 68.4554 44.3595 68.6378 44.6457Z" fill="#060713"/>
<path d="M69.2329 50.7285L56.0142 49.6523C55.9683 49.4566 55.9365 49.2579 55.9189 49.0577L69.4234 50.1577C69.3698 50.3361 69.2924 50.5263 69.2329 50.7285Z" fill="#060713"/>
<path d="M85.7311 42.4043L72.3159 26.6C82.3267 23.0325 90.7067 21.9741 92.0042 23.5022C93.3016 25.0303 90.9031 33.1168 85.7311 42.4043Z" fill="#E97B0C"/>
<path d="M76.2619 27.9318C76.1422 28.0281 75.9899 28.0745 75.8369 28.0612C75.6838 28.0479 75.5418 27.976 75.4406 27.8605C75.378 27.7407 75.3582 27.6033 75.3842 27.4708C75.4103 27.3383 75.4807 27.2186 75.5839 27.1314C75.6871 27.0442 75.817 26.9947 75.9521 26.991C76.0872 26.9874 76.2196 27.0298 76.3274 27.1113C76.4245 27.2301 76.4719 27.3818 76.4597 27.5347C76.4475 27.6876 76.3766 27.8299 76.2619 27.9318Z" fill="#C4C7C8"/>
<path d="M78.6487 30.7444C78.5298 30.8414 78.3779 30.8888 78.2249 30.8766C78.0718 30.8644 77.9294 30.7936 77.8274 30.679C77.7485 30.5903 77.6979 30.4801 77.6822 30.3624C77.6665 30.2448 77.6864 30.1252 77.7393 30.019C77.7923 29.9128 77.8758 29.8248 77.9792 29.7664C78.0826 29.7079 78.2011 29.6818 78.3195 29.6912C78.4379 29.7006 78.5507 29.7452 78.6435 29.8193C78.7364 29.8933 78.8049 29.9934 78.8403 30.1067C78.8757 30.2199 78.8764 30.3412 78.8422 30.4548C78.8081 30.5685 78.7407 30.6693 78.6487 30.7444Z" fill="#C4C7C8"/>
<path d="M81.0352 33.5567C80.9163 33.6538 80.7644 33.7012 80.6114 33.689C80.4583 33.6768 80.3159 33.606 80.2139 33.4913C80.1349 33.4027 80.0844 33.2924 80.0687 33.1748C80.053 33.0572 80.0729 32.9376 80.1258 32.8313C80.1787 32.7251 80.2623 32.6371 80.3656 32.5787C80.469 32.5203 80.5875 32.4941 80.7059 32.5036C80.8243 32.513 80.9372 32.5576 81.03 32.6316C81.1228 32.7057 81.1913 32.8058 81.2268 32.919C81.2622 33.0323 81.2628 33.1535 81.2287 33.2672C81.1946 33.3808 81.1272 33.4817 81.0352 33.5567Z" fill="#C4C7C8"/>
<path d="M83.4219 36.3691C83.303 36.4662 83.1511 36.5136 82.9981 36.5014C82.845 36.4892 82.7026 36.4184 82.6006 36.3037C82.5217 36.215 82.4711 36.1048 82.4554 35.9872C82.4397 35.8696 82.4596 35.7499 82.5125 35.6437C82.5655 35.5375 82.649 35.4495 82.7524 35.3911C82.8558 35.3327 82.9743 35.3065 83.0927 35.3159C83.2111 35.3254 83.3239 35.37 83.4167 35.444C83.5095 35.518 83.5781 35.6181 83.6135 35.7314C83.6489 35.8447 83.6496 35.9659 83.6154 36.0796C83.5813 36.1932 83.5139 36.2941 83.4219 36.3691Z" fill="#C4C7C8"/>
<path d="M85.8086 39.1814C85.7201 39.2611 85.6097 39.3123 85.4917 39.3286C85.3737 39.3449 85.2535 39.3254 85.1467 39.2726C85.0399 39.2199 84.9514 39.1364 84.8926 39.0329C84.8339 38.9294 84.8076 38.8106 84.8171 38.692C84.8266 38.5734 84.8716 38.4603 84.9461 38.3675C85.0207 38.2747 85.1214 38.2063 85.2352 38.1713C85.3491 38.1363 85.4708 38.1362 85.5847 38.1711C85.6986 38.2059 85.7994 38.2741 85.8741 38.3669C85.9694 38.4853 86.0158 38.6357 86.0036 38.7872C85.9914 38.9387 85.9217 39.0797 85.8086 39.1814Z" fill="#C4C7C8"/>
<path d="M33.6181 64.0771C33.5293 64.156 33.419 64.2065 33.3012 64.2221C33.1835 64.2378 33.0638 64.2179 32.9574 64.1651C32.8511 64.1122 32.763 64.0288 32.7046 63.9255C32.6461 63.8222 32.6199 63.7038 32.6293 63.5855C32.6388 63.4672 32.6834 63.3545 32.7575 63.2617C32.8316 63.169 32.9318 63.1006 33.0452 63.0652C33.1586 63.0298 33.2799 63.0291 33.3937 63.0633C33.5074 63.0974 33.6084 63.1647 33.6835 63.2566C33.7807 63.3754 33.8281 63.5271 33.8159 63.68C33.8037 63.8329 33.7328 63.9752 33.6181 64.0771Z" fill="#404040"/>
<path d="M36.0045 66.8895C35.9158 66.9683 35.8054 67.0188 35.6877 67.0345C35.57 67.0502 35.4502 67.0303 35.3439 66.9774C35.2376 66.9246 35.1495 66.8411 35.091 66.7378C35.0326 66.6346 35.0064 66.5162 35.0158 66.3979C35.0252 66.2796 35.0699 66.1668 35.144 66.0741C35.2181 65.9814 35.3183 65.913 35.4317 65.8776C35.545 65.8422 35.6664 65.8415 35.7802 65.8756C35.8939 65.9097 35.9949 65.9771 36.07 66.069C36.1671 66.1878 36.2146 66.3395 36.2024 66.4924C36.1902 66.6453 36.1193 66.7876 36.0045 66.8895Z" fill="#404040"/>
<path d="M38.3913 69.7019C38.3025 69.7807 38.1921 69.8312 38.0744 69.8469C37.9567 69.8625 37.837 69.8427 37.7306 69.7898C37.6243 69.7369 37.5362 69.6535 37.4778 69.5502C37.4193 69.4469 37.3931 69.3285 37.4025 69.2103C37.412 69.092 37.4566 68.9792 37.5307 68.8865C37.6048 68.7938 37.705 68.7253 37.8184 68.6899C37.9318 68.6546 38.0531 68.6539 38.1669 68.688C38.2806 68.7221 38.3816 68.7894 38.4567 68.8813C38.5539 69.0001 38.6013 69.1518 38.5891 69.3047C38.5769 69.4576 38.506 69.5999 38.3913 69.7019Z" fill="#404040"/>
<path d="M40.7777 72.5262C40.689 72.605 40.5786 72.6555 40.4609 72.6712C40.3432 72.6869 40.2234 72.667 40.1171 72.6141C40.0108 72.5613 39.9227 72.4778 39.8642 72.3745C39.8058 72.2713 39.7796 72.1529 39.789 72.0346C39.7984 71.9163 39.8431 71.8036 39.9172 71.7108C39.9913 71.6181 40.0915 71.5497 40.2049 71.5143C40.3182 71.4789 40.4396 71.4782 40.5534 71.5123C40.6671 71.5464 40.7681 71.6138 40.8432 71.7057C40.9403 71.8245 40.9878 71.9762 40.9756 72.1291C40.9634 72.282 40.8925 72.4243 40.7777 72.5262Z" fill="#404040"/>
<path d="M43.1644 75.3269C43.0757 75.4057 42.9653 75.4562 42.8476 75.4719C42.7299 75.4875 42.6101 75.4677 42.5038 75.4148C42.3975 75.3619 42.3094 75.2785 42.2509 75.1752C42.1925 75.0719 42.1663 74.9535 42.1757 74.8352C42.1851 74.717 42.2298 74.6042 42.3039 74.5115C42.378 74.4188 42.4782 74.3503 42.5916 74.3149C42.7049 74.2795 42.8263 74.2789 42.9401 74.313C43.0538 74.3471 43.1548 74.4144 43.2299 74.5063C43.3271 74.6251 43.3745 74.7768 43.3623 74.9297C43.3501 75.0826 43.2792 75.2249 43.1644 75.3269Z" fill="#404040"/>
<path opacity="0.2" d="M91.3734 23.1097C83.6362 23.6627 70.2746 28.3421 56.1869 39.3718C45.7834 47.5534 38.1949 61.782 34.6537 69.3987L30.3982 64.3863C30.3982 64.3863 36.213 48.7902 50.0388 38.3194C56.9428 33.0929 65.049 29.1865 72.3042 26.6C81.2912 23.3833 88.9332 22.2179 91.3734 23.1097Z" fill="#C4C7C8"/>
<path d="M36.5699 79.6733L27.4995 68.9826L31.0229 65.1296L40.9563 76.8252L36.5699 79.6733Z" fill="#E97B0C"/>
<path opacity="0.1" d="M40.9505 76.8252L38.8198 78.2106L29.678 66.6042L31.0231 65.1296L40.9505 76.8252Z" fill="black"/>
<path opacity="0.6" d="M34.5762 77.2829C30.3199 80.0967 26.6976 83.7661 23.9405 88.0569C21.1636 92.4 19.5942 97.4034 19.3934 102.553C19.3242 105.162 19.6431 107.767 20.3397 110.283C21.0522 112.847 22.1328 115.294 23.5477 117.549C24.9952 119.849 26.7336 121.953 28.7197 123.81C30.7391 125.691 32.9446 127.362 35.3023 128.798C32.7609 127.63 30.3459 126.206 28.0948 124.547C25.8106 122.858 23.7524 120.884 21.9705 118.672C18.2875 114.094 16.0446 108.528 15.5248 102.678C15.0616 96.6874 16.2059 90.6817 18.8399 85.2802C21.4905 79.8496 25.2468 75.0318 29.8684 71.1348L34.5762 77.2829Z" fill="#E97B0C"/>
<path d="M27.3807 83.7343L25.7261 84.0375L25.3571 85.7856L24.9881 84.0375L23.3335 83.7343L24.9762 83.33L25.3571 81.6829L25.732 83.33L27.3807 83.7343Z" fill="#C4C7C8"/>
<path d="M21.2861 116.377L20.3635 116.55L20.1552 117.525L19.9529 116.55L19.0244 116.377L19.9469 116.151L20.1552 115.23L20.3695 116.151L21.2861 116.377Z" fill="#C4C7C8"/>
<path d="M20.7922 107.922L19.8697 108.089L19.6613 109.064L19.453 108.089L18.5305 107.922L19.4471 107.696L19.6613 106.775L19.8697 107.696L20.7922 107.922Z" fill="#C4C7C8"/>
<path d="M26.1545 78.2996L25.232 78.4721L25.0236 79.4472L24.8213 78.4721L23.8928 78.2996L24.8153 78.0737L25.0236 77.1521L25.2379 78.0737L26.1545 78.2996Z" fill="#C4C7C8"/>
<path d="M23.4644 118.482C23.3933 118.482 23.3252 118.51 23.275 118.561C23.2247 118.611 23.1965 118.679 23.1965 118.75C23.1965 118.821 23.2247 118.889 23.275 118.939C23.3252 118.989 23.3933 119.017 23.4644 119.017C23.5354 119.017 23.6035 118.989 23.6537 118.939C23.704 118.889 23.7322 118.821 23.7322 118.75C23.7322 118.679 23.704 118.611 23.6537 118.561C23.6035 118.51 23.5354 118.482 23.4644 118.482Z" fill="#C4C7C8"/>
<path d="M31.1301 76.9976C31.0591 76.9976 30.991 77.0258 30.9408 77.076C30.8905 77.1262 30.8623 77.1942 30.8623 77.2652C30.8623 77.3361 30.8905 77.4042 30.9408 77.4544C30.991 77.5046 31.0591 77.5327 31.1301 77.5327C31.2012 77.5327 31.2693 77.5046 31.3195 77.4544C31.3697 77.4042 31.398 77.3361 31.398 77.2652C31.398 77.1942 31.3697 77.1262 31.3195 77.076C31.2693 77.0258 31.2012 76.9976 31.1301 76.9976Z" fill="#C4C7C8"/>
<path d="M16.6914 100.888C16.6204 100.888 16.5523 100.917 16.502 100.967C16.4518 101.017 16.4236 101.085 16.4236 101.156C16.4236 101.227 16.4518 101.295 16.502 101.345C16.5523 101.395 16.6204 101.423 16.6914 101.423C16.7624 101.423 16.8306 101.395 16.8808 101.345C16.931 101.295 16.9592 101.227 16.9592 101.156C16.9592 101.085 16.931 101.017 16.8808 100.967C16.8306 100.917 16.7624 100.888 16.6914 100.888Z" fill="#C4C7C8"/>
<path d="M22.9999 117.121C22.9495 117.121 22.9011 117.141 22.8655 117.176C22.8298 117.212 22.8098 117.26 22.8098 117.311C22.8098 117.361 22.8298 117.409 22.8655 117.445C22.9011 117.481 22.9495 117.501 22.9999 117.501C23.0503 117.501 23.0987 117.481 23.1343 117.445C23.1699 117.409 23.19 117.361 23.19 117.311C23.19 117.26 23.1699 117.212 23.1343 117.176C23.0987 117.141 23.0503 117.121 22.9999 117.121Z" fill="#C4C7C8"/>
<path d="M16.5958 91.5531C16.5519 91.561 16.5122 91.584 16.4835 91.6182C16.4549 91.6524 16.4392 91.6956 16.4392 91.7402C16.4392 91.7848 16.4549 91.828 16.4835 91.8622C16.5122 91.8964 16.5519 91.9195 16.5958 91.9273C16.6397 91.9195 16.6795 91.8964 16.7081 91.8622C16.7367 91.828 16.7524 91.7848 16.7524 91.7402C16.7524 91.6956 16.7367 91.6524 16.7081 91.6182C16.6795 91.584 16.6397 91.561 16.5958 91.5531Z" fill="#C4C7C8"/>
<path d="M18.5305 110.913C18.4035 110.927 18.286 110.987 18.2007 111.082C18.1153 111.177 18.0681 111.3 18.0681 111.428C18.0681 111.555 18.1153 111.678 18.2007 111.773C18.286 111.868 18.4035 111.928 18.5305 111.942C18.6575 111.928 18.7749 111.868 18.8603 111.773C18.9456 111.678 18.9928 111.555 18.9928 111.428C18.9928 111.3 18.9456 111.177 18.8603 111.082C18.7749 110.987 18.6575 110.927 18.5305 110.913Z" fill="#C4C7C8"/>
<path d="M19.0244 89.7693C18.8974 89.783 18.7799 89.8431 18.6946 89.938C18.6092 90.033 18.562 90.1561 18.562 90.2837C18.562 90.4113 18.6092 90.5344 18.6946 90.6293C18.7799 90.7243 18.8974 90.7843 19.0244 90.798C19.1514 90.7843 19.2688 90.7243 19.3542 90.6293C19.4395 90.5344 19.4867 90.4113 19.4867 90.2837C19.4867 90.1561 19.4395 90.033 19.3542 89.938C19.2688 89.8431 19.1514 89.783 19.0244 89.7693Z" fill="#C4C7C8"/>
<path d="M179.25 190.255C179.25 190.255 182.417 206.856 173.388 214.824C164.359 222.791 154.712 224.896 134.44 220.698C114.169 216.501 100.837 211.185 92.6769 218.606C92.6769 218.606 91.07 221.257 95.8313 226.573C100.593 231.889 106.163 244.113 94.641 253.009C81.0592 263.497 60.4068 252.307 56.7643 232.311C53.1219 212.315 68.138 187.776 98.6405 189.132C129.143 190.487 138.237 196.582 143.975 196.754C149.712 196.927 150.587 191.932 150.587 191.932L179.25 190.255Z" fill="#154962" fill-opacity="0.65"/>
<path d="M94.2242 224.658C83.5706 223.594 73.3932 226.151 66.5547 234.766C64.4001 237.471 62.5629 240.414 61.0791 243.537C62.1598 240.19 63.767 237.037 65.8405 234.196C72.3873 225.057 83.6123 222.108 94.242 224.635L94.2242 224.658Z" fill="#263238"/>
<path d="M97.6645 215.692C94.0577 205.762 85.5408 200.435 75.0777 200.875C71.8011 201.011 68.5438 201.447 65.3467 202.177C68.4566 200.993 71.7151 200.242 75.0301 199.947C85.7075 198.907 95.373 204.989 97.6466 215.692H97.6645Z" fill="#263238"/>
<path d="M92.6768 218.576C83.279 212.202 72.2505 212.707 62.6266 218.243C61.4363 219.01 59.5853 220.062 58.4604 220.942C57.7998 221.436 57.1272 221.923 56.4487 222.399C61.1208 217.642 67.1618 213.944 73.8694 213.004C80.5115 212.077 87.7071 214.009 92.647 218.576H92.6768Z" fill="#263238"/>
<path d="M92.6114 111.722C84.0707 102.339 78.238 90.2807 76.9524 77.61C75.9347 64.9571 78.7379 51.8285 85.5288 41.0426C92.3197 30.2567 103.652 22.8303 115.377 18.1092C138.63 8.84548 167.859 11.8779 188.958 25.2443C208.003 37.1362 220.234 59.0231 220.02 81.4867C219.752 91.1132 215.853 100.27 210.937 108.398C207.6 113.833 203.711 118.91 199.331 123.548C190.541 127.144 181.405 129.834 172.067 131.575C145.51 136.825 112.014 131.944 92.6114 111.722ZM92.6114 111.722C112.05 131.872 145.504 136.659 172.019 131.343C181.288 129.569 190.359 126.884 199.099 123.328C201.282 121.024 203.333 118.598 205.242 116.062C212.758 106.031 219.157 94.2586 219.561 81.4808C219.805 55.8836 203.557 31.6243 180.345 21.1119C154.462 9.1071 122.12 10.3201 98.8071 27.5157C82.7851 38.6167 75.5359 58.6009 77.0477 77.604C78.2916 90.2629 84.0945 102.327 92.5995 111.728L92.6114 111.722Z" fill="#263238"/>
<path d="M102.914 214.866C103.961 206.44 102.235 196.962 95.1766 191.528C94.201 190.755 93.1794 190.042 92.1174 189.393C93.3035 189.83 94.4421 190.386 95.5159 191.052C103.402 195.862 105.58 206.512 102.908 214.866H102.914Z" fill="#263238"/>
<path d="M109.449 215.317C113.984 208.283 115.305 200.405 111.169 192.848C110.705 191.825 109.978 190.832 109.449 189.845C110.26 190.688 111.004 191.593 111.675 192.551C116.811 199.715 115.454 209.128 109.449 215.317Z" fill="#263238"/>
<path d="M117.686 216.887C121.225 213.856 123.74 209.807 124.887 205.293C126.078 200.762 125.143 196.059 123.024 191.902C124.543 193.798 125.605 196.018 126.128 198.389C126.651 200.76 126.622 203.22 126.042 205.578C124.816 210.18 121.935 214.61 117.71 216.875L117.686 216.887Z" fill="#263238"/>
<path d="M128.03 219.271C134.154 214.687 137.892 207.843 137.291 200.12C137.112 198.391 136.834 196.673 136.458 194.976C136.94 196.048 137.337 197.155 137.648 198.288C140.029 206.613 135.767 215.579 128.024 219.271H128.03Z" fill="#263238"/>
<path d="M141.439 221.929C143.124 220.461 143.82 218.201 144.522 216.15C146.379 209.841 146.808 202.831 143.987 196.725C148.123 202.326 147.778 210.198 145.397 216.459C144.516 218.499 143.475 220.823 141.439 221.929Z" fill="#263238"/>
<path d="M155.896 222.589C157.289 214.58 155.753 204.752 150.349 198.479C149.538 197.554 148.659 196.691 147.718 195.898C148.813 196.503 149.836 197.231 150.766 198.068C157.015 203.747 158.878 214.871 155.896 222.589Z" fill="#263238"/>
<path d="M149.974 193.561C160.794 196.314 169.751 206.452 169.412 217.874C167.799 206.523 160.247 198.157 149.974 193.561Z" fill="#263238"/>
<path opacity="0.2" d="M92.6114 111.722C83.2255 101.542 77.0298 87.2482 76.7917 74.0364C76.5537 60.8245 80.3628 47.1846 88.7606 36.6901C97.1585 26.1955 122.935 7.11509 161.282 14.6902C199.629 22.2653 218.954 51.4597 219.793 79.6434C220.46 102.048 199.212 123.459 199.212 123.459C193.023 126.033 168.418 135.523 142.921 133.168C116.984 130.754 100.801 120.605 92.6114 111.722Z" fill="#404040"/>
<path d="M150.599 191.902C161.669 190.214 174.007 195.898 178.495 206.44C172.299 196.778 161.871 192.105 150.599 191.902Z" fill="#263238"/>
<path opacity="0.1" d="M179.256 203.277C168.508 206.922 151.022 212.642 148.016 212.404C144.784 212.142 103.378 206.036 101.325 204.853C99.6583 203.872 87.9751 195.934 81.3508 191.445C86.9145 189.572 92.7846 188.777 98.6465 189.102C129.149 190.463 138.249 196.552 143.987 196.725C149.724 196.897 150.599 191.908 150.599 191.908L179.25 190.255C179.957 194.567 179.959 198.965 179.256 203.277Z" fill="black"/>
<path d="M91.1769 113.369C89.2878 113.261 87.3941 113.261 85.505 113.369C84.263 113.674 83.0636 114.131 81.9339 114.73C81.9339 114.73 76.2619 110.848 71.1197 112.007C65.9774 113.167 58.2045 123.435 57.3653 131.831C56.5261 140.226 57.0498 160.674 61.7755 169.29C66.5011 177.906 98.8368 201.285 103.562 203.384C108.288 205.483 137.166 209.36 148.29 209.151C159.413 208.943 190.279 189.69 198.159 181.985C203.2 177.055 205.718 152.719 205.825 147.79C205.932 142.86 198.576 126.919 198.576 126.919L91.1769 113.369Z" fill="#3E99B4"/>
<path opacity="0.1" d="M205.831 147.772C205.724 152.707 203.206 177.038 198.165 181.961C190.285 189.691 159.419 208.926 148.296 209.134C137.172 209.342 108.288 205.465 103.569 203.36C98.8488 201.255 66.5013 177.876 61.7756 169.278C59.0081 164.236 57.6868 155.127 57.2285 146.755C57.9725 151.922 64.1623 164.789 66.1561 167.566C68.1499 170.343 100.111 193.847 106.55 195.304C112.99 196.76 144.362 199.371 150.373 199.329C156.384 199.287 191.874 180.694 195.011 177.68C198.147 174.665 204.706 157.826 205.831 147.772Z" fill="black"/>
<path d="M92.6113 111.722C92.6113 111.722 83.5111 97.3207 83.9337 90.7445C84.3563 84.1683 103.39 62.4955 110.812 56.7636C118.233 51.0318 135.589 47.9518 141.469 47.9518C147.349 47.9518 164.085 54.3971 164.085 54.3971C164.085 54.3971 166.014 49.8961 167.764 40.1269C168.579 35.5486 199.123 51.8701 197.718 78.8646C197.718 78.8646 204.861 105.116 205.277 108.63C205.694 112.144 195.903 124.737 195.903 124.737C189.14 127.423 182.143 129.479 175.001 130.879C162.431 133.395 148.057 135.083 129.684 131.028C102.759 125.076 92.6113 111.722 92.6113 111.722Z" fill="#E97B0C"/>
<path d="M100.473 66.842C100.593 60.5394 95.3431 45.0859 94.0099 43.0584C92.6767 41.0308 111.746 36.8211 130.387 49.3789L100.473 66.842Z" fill="#E97B0C"/>
<path opacity="0.1" d="M104.057 64.7491C104.057 64.7491 102.777 51.9535 98.1584 45.9243C97.3847 44.9135 111.389 45.3713 123.411 53.7789C123.411 53.7789 118.698 56.2821 115.412 58.1194C115.412 58.1194 112.948 56.9302 111.044 56.8232C109.139 56.7161 106.11 57.7448 106.11 57.7448C106.11 57.7448 109.681 58.4702 110.627 59.0767C111.228 59.4949 111.743 60.0236 112.145 60.6345C111.411 60.243 110.634 59.9377 109.83 59.7248C109.16 59.7112 108.493 59.8158 107.86 60.034C108.356 60.0656 108.841 60.1973 109.284 60.4211C109.728 60.6449 110.122 60.9561 110.443 61.3361C110.443 61.3361 105.455 63.9345 104.057 64.7491Z" fill="black"/>
<path opacity="0.1" d="M166.561 56.0738C166.561 56.0738 168.9 48.2728 169.537 43.0641C169.692 41.8036 186.494 51.5609 185.809 69.1846C185.809 69.1846 179.429 63.9403 176.173 62.0495C176.173 62.0495 176.334 58.5354 175.441 56.8587C174.548 55.1819 172.132 53.083 172.132 53.083C172.132 53.083 173.322 56.5435 173.287 57.6435C173.228 58.3753 173.025 59.0884 172.692 59.7424C172.656 58.9134 172.525 58.0912 172.299 57.2927C171.981 56.7134 171.564 56.1942 171.067 55.7587C171.292 56.2014 171.425 56.6853 171.458 57.181C171.491 57.6767 171.423 58.1739 171.257 58.6424C169.892 57.4632 168.291 56.5876 166.561 56.0738Z" fill="black"/>
<path opacity="0.1" d="M195.927 124.731C189.163 127.418 182.166 129.476 175.025 130.879C162.455 133.389 148.087 135.077 129.708 131.022C103.598 125.255 93.2601 112.554 92.6411 111.763C94.9028 114.142 111.484 123.845 115.585 125.201C119.686 126.557 142.778 130.023 152.557 128.769C162.336 127.514 188.47 121.116 190.255 119.755C192.041 118.393 196.332 107.607 197.076 104.634C197.82 101.661 194.278 77.9726 194.278 77.9726C194.278 77.9726 198.29 56.0678 174.537 41.1912C183.678 45.9479 198.724 59.7305 197.748 78.8585C197.748 78.8585 204.89 105.11 205.307 108.63C205.724 112.15 195.927 124.731 195.927 124.731Z" fill="black"/>
<path d="M109.764 76.8431C104.812 75.6539 101.105 79.9468 99.682 85.7203C98.5274 90.3938 100.277 95.8938 105.039 97.0592C109.8 98.2246 114.115 93.343 115.198 88.9549C116.281 84.5668 115.156 78.1631 109.764 76.8431Z" fill="#263238"/>
<path d="M109.955 78.169C105.3 77.0214 101.813 81.0885 100.48 86.4933C99.3963 90.8873 101.075 96.0484 105.521 97.1484C109.967 98.2484 114.049 93.6581 115.043 89.5317C116.037 85.4052 115.014 79.4117 109.955 78.169Z" fill="#C4C7C8"/>
<path d="M110.758 80.4343C107.116 79.5365 104.384 82.7175 103.336 86.9748C102.491 90.4175 103.789 94.4607 107.288 95.2991C110.788 96.1375 113.966 92.564 114.758 89.3532C115.549 86.1424 114.716 81.4035 110.758 80.4343Z" fill="#263238"/>
<path d="M147.468 84.519C154.093 84.1861 157.681 89.1033 157.973 95.0374C158.211 99.8476 154.521 104.955 148.165 105.27C141.808 105.585 137.583 100.008 137.356 95.4952C137.13 90.9822 140.267 84.8758 147.468 84.519Z" fill="#263238"/>
<path d="M146.891 85.7917C153.116 85.4825 156.491 90.1025 156.765 95.6857C156.991 100.205 153.521 105.003 147.546 105.3C141.57 105.598 137.6 100.353 137.386 96.1138C137.172 91.8744 140.118 86.1306 146.891 85.7917Z" fill="#C4C7C8"/>
<path d="M147.171 86.9274C152.259 86.6776 155.009 90.4473 155.235 95.0019C155.265 96.0131 155.092 97.0201 154.728 97.9641C154.364 98.9082 153.816 99.7705 153.116 100.501C152.415 101.231 151.576 101.815 150.647 102.219C149.719 102.622 148.719 102.837 147.706 102.851C142.826 103.094 139.588 98.8192 139.416 95.3527C139.362 94.2887 139.521 93.2247 139.883 92.2227C140.246 91.2207 140.804 90.3008 141.526 89.5165C142.248 88.7323 143.119 88.0995 144.088 87.655C145.057 87.2104 146.105 86.9631 147.171 86.9274Z" fill="#263238"/>
<path d="M126.28 93.1407C126.12 93.7353 122.043 95.5666 121.608 95.5191C121.174 95.4715 117.662 92.6294 117.644 91.9872C117.626 91.345 121.168 91.5948 122.066 91.7196C122.965 91.8445 126.429 92.5342 126.28 93.1407Z" fill="#263238"/>
<path d="M114.24 96.0542C114.74 97.0234 115.246 97.9807 115.829 98.8785C116.104 99.3101 116.428 99.7091 116.793 100.068C116.928 100.207 117.099 100.306 117.287 100.353C117.472 100.345 117.651 100.288 117.805 100.187C118.201 99.9135 118.543 99.5711 118.817 99.1758C119.122 98.7559 119.396 98.3147 119.638 97.8558C120.147 96.9299 120.593 95.9704 120.971 94.984L121.656 93.2002L122.049 95.1029C122.307 96.366 122.671 97.6051 123.138 98.8072C123.361 99.3964 123.642 99.9621 123.977 100.496C124.251 100.998 124.664 101.411 125.167 101.685L125.346 101.744H125.524C125.665 101.756 125.806 101.756 125.947 101.744C126.244 101.708 126.534 101.632 126.81 101.519C127.397 101.269 127.949 100.946 128.453 100.555C129.494 99.7453 130.449 98.8308 131.304 97.8261C130.611 98.9786 129.764 100.031 128.786 100.954C128.281 101.424 127.714 101.824 127.102 102.143C126.429 102.527 125.634 102.638 124.882 102.452C124.174 102.167 123.573 101.668 123.162 101.025C122.767 100.449 122.43 99.8357 122.156 99.1937C121.625 97.937 121.215 96.633 120.93 95.2991L122.007 95.3883C121.599 96.426 121.109 97.4301 120.543 98.391C120.249 98.8759 119.923 99.3407 119.567 99.7823C119.194 100.262 118.723 100.658 118.186 100.942C117.867 101.11 117.502 101.175 117.144 101.126C116.801 101.024 116.499 100.815 116.281 100.532C115.915 100.094 115.607 99.6099 115.365 99.0926C114.898 98.1161 114.522 97.0991 114.24 96.0542Z" fill="#263238"/>
<path d="M97.4145 88.6635C94.6707 88.1521 91.9151 87.7359 89.1535 87.3792C86.3919 87.0224 83.6184 86.7073 80.8211 86.517C79.4344 86.3862 78.0476 86.3089 76.6549 86.2197C75.2622 86.1305 73.8755 86.0889 72.4887 86.0532C69.7033 85.9462 66.9179 85.9819 64.1206 85.9938C65.5133 85.8808 66.906 85.7619 68.2868 85.7024C69.6676 85.643 71.0782 85.6132 72.453 85.6192C75.2503 85.6192 78.0417 85.7559 80.833 85.9581C83.6244 86.1602 86.3979 86.5111 89.1654 86.957C90.5462 87.177 91.921 87.4267 93.2899 87.6943C94.6588 87.9619 96.0753 88.2829 97.4145 88.6635Z" fill="#263238"/>
<path d="M96.1109 90.1499C94.8551 90.0726 93.5993 89.9953 92.3435 89.9477C91.0877 89.9002 89.8319 89.8348 88.5761 89.7991C86.0704 89.7218 83.5588 89.6623 81.0472 89.6921C79.7914 89.6921 78.5355 89.6921 77.2797 89.6921L73.5123 89.811L71.6316 89.8823L69.7508 89.9953C68.495 90.0369 67.2452 90.1796 65.9834 90.2391C68.4712 89.8467 70.9769 89.5434 73.4885 89.3829C76.0001 89.2223 78.5236 89.1272 81.0472 89.1094C83.5707 89.0915 86.0883 89.1867 88.5999 89.3532C91.1115 89.5196 93.6231 89.7694 96.1109 90.1499Z" fill="#263238"/>
<path d="M96.6703 91.7911C95.6228 91.8565 94.5753 91.916 93.5278 92.0051C92.4803 92.0943 91.4388 92.1479 90.3972 92.2489C88.3141 92.4392 86.231 92.6176 84.1479 92.8435C82.0648 93.0695 79.9817 93.3192 77.9165 93.5868C75.8513 93.8543 73.7503 94.1814 71.6851 94.437C72.7008 94.1873 73.7245 93.9534 74.7561 93.7354C75.7858 93.5392 76.8154 93.337 77.851 93.1408C79.9163 92.7722 82.0172 92.5046 84.0884 92.2668C86.1596 92.0289 88.2546 91.8743 90.3675 91.7911C92.4803 91.7079 94.5575 91.6841 96.6703 91.7911Z" fill="#263238"/>
<path d="M160.235 102.945C161.967 102.945 163.699 103.082 165.425 103.201C167.151 103.32 168.877 103.522 170.597 103.73C174.043 104.147 177.465 104.711 180.869 105.371C184.274 106.031 187.654 106.834 190.987 107.785C192.66 108.243 194.314 108.761 195.963 109.284C196.79 109.54 197.605 109.837 198.421 110.128L200.867 111.008C197.546 110.027 194.237 109.022 190.874 108.202C189.202 107.768 187.517 107.375 185.839 106.977C184.16 106.578 182.458 106.234 180.762 105.918C177.376 105.217 173.965 104.658 170.543 104.135C167.121 103.611 163.687 103.237 160.235 102.945Z" fill="#263238"/>
<path d="M161.282 105.157C164.383 105.574 167.454 106.162 170.507 106.822C173.561 107.482 176.584 108.267 179.602 109.1C182.619 109.932 185.589 110.883 188.529 111.96C191.469 113.036 194.368 114.195 197.213 115.474C195.737 114.962 194.296 114.368 192.814 113.88L190.606 113.101L188.386 112.364C186.91 111.87 185.41 111.412 183.934 110.937C182.458 110.461 180.959 110.045 179.447 109.635C176.471 108.761 173.436 107.982 170.412 107.256C168.896 106.884 167.379 106.525 165.859 106.18C164.341 105.823 162.812 105.478 161.282 105.157Z" fill="#263238"/>
<path d="M160.08 106.941C162.615 107.536 165.103 108.321 167.573 109.147C170.043 109.974 172.477 110.901 174.9 111.858C177.322 112.816 179.709 113.868 182.042 114.992C183.232 115.545 184.387 116.134 185.553 116.71C186.72 117.287 187.856 117.899 188.993 118.554C186.613 117.501 184.232 116.407 181.851 115.384C179.47 114.362 177.09 113.339 174.667 112.376C172.245 111.412 169.835 110.467 167.406 109.551C166.216 109.088 164.966 108.654 163.74 108.22C162.514 107.785 161.312 107.351 160.08 106.941Z" fill="#263238"/>
<path d="M105.455 70.2372C107.431 67.6745 111.407 66.9015 114.258 68.2929C111.248 68.5352 108.286 69.1894 105.455 70.2372Z" fill="#263238"/>
<path d="M159.758 79.6197C157.407 77.7024 154.804 76.1159 152.021 74.9046C155.194 74.53 158.681 76.5457 159.711 79.6078L159.758 79.6197Z" fill="#263238"/>
<path d="M124.786 121.877C123.497 120.197 122.492 118.317 121.81 116.312C121.796 116.277 121.771 116.248 121.74 116.227C121.709 116.206 121.672 116.195 121.635 116.195C121.597 116.195 121.561 116.206 121.529 116.227C121.498 116.248 121.474 116.277 121.459 116.312C121.31 116.752 120.894 117.983 120.864 118.173C120.816 118.054 120.775 117.935 120.733 117.816C120.594 117.42 120.475 117.01 120.376 116.585C120.172 115.754 120.039 114.907 119.977 114.053C119.913 113.197 119.923 112.338 120.007 111.484C120.09 110.622 120.281 109.777 120.436 108.921C120.436 108.886 120.37 108.868 120.358 108.921C119.989 109.748 119.731 110.619 119.59 111.514C119.439 112.367 119.368 113.233 119.376 114.1C119.383 114.973 119.477 115.844 119.656 116.698C119.751 117.144 119.864 117.584 120.001 118.018C120.11 118.442 120.292 118.845 120.537 119.208C120.715 119.44 121.084 119.208 121.132 118.994C121.132 118.851 121.614 117.138 121.691 116.889C122.284 118.78 123.302 120.511 124.667 121.949C124.715 122.038 124.84 121.949 124.786 121.877Z" fill="#263238"/>
<path d="M200.861 129.013C183.405 136.831 149.974 142.23 124.798 135.41C99.6226 128.59 87.5049 114.433 87.0823 112.762C86.6598 111.092 88.1298 109.195 89.957 108.642C90.8022 109.712 91.689 110.747 92.6055 111.74C100.795 120.623 116.978 130.767 142.915 133.145C168.412 135.523 193.017 126.01 199.213 123.435C201.629 123.227 204.146 127.526 200.861 129.013Z" fill="#263238"/>
<path d="M139.636 193.097C146.461 195.88 153.978 196.503 161.169 194.881C154.426 198.235 145.778 197.39 139.636 193.097Z" fill="#263238"/>
<path d="M155.884 156.857C157.568 152.695 160.437 148.485 164.716 146.577C170.436 144.793 178.197 147.421 183.571 149.55C186.957 150.917 190.164 152.688 193.124 154.824C186.794 151.375 179.968 148.924 172.888 147.558C170.121 147.13 167.139 146.684 164.514 147.778C160.717 149.686 157.967 153.195 155.902 156.851L155.884 156.857Z" fill="#263238"/>
<path d="M183.345 149.936C185.982 149.361 188.74 149.785 191.082 151.125C188.529 150.577 185.945 150.18 183.345 149.936Z" fill="#263238"/>
<path d="M161.473 153.985C167.787 158.248 170.454 160.431 170.019 167.56C169.638 173.755 152.694 193.508 141.802 196.927C140.868 197.245 139.879 197.372 138.895 197.302C137.91 197.231 136.95 196.964 136.071 196.516L161.473 153.985Z" fill="#3E99B4"/>
<path d="M152.021 152.326C144.558 154.318 129.161 182.264 130.113 189.024C130.869 194.411 134.648 197.349 139.38 196.611C145.016 195.714 167.644 170.325 167.662 164.295C167.686 157.582 160.05 150.186 152.021 152.326Z" fill="#99DFEB"/>
<path d="M167.668 164.272L150.742 152.879C151.146 152.639 151.58 152.453 152.033 152.326C152.205 152.276 152.38 152.234 152.557 152.201C152.7 152.166 152.845 152.138 152.991 152.118L167.329 161.751C167.371 161.905 167.406 162.054 167.436 162.214C167.593 162.889 167.671 163.579 167.668 164.272Z" fill="#263238"/>
<path d="M167.436 162.214L152.557 152.201C152.7 152.166 152.845 152.138 152.991 152.118L153.456 152.047L167.186 161.281C167.243 161.435 167.29 161.591 167.329 161.751C167.371 161.905 167.406 162.054 167.436 162.214Z" fill="#154962" fill-opacity="0.65"/>
<path d="M165.99 168.666C165.942 168.761 165.889 168.85 165.829 168.945C165.579 169.379 165.306 169.831 165.008 170.295L145.802 157.38C146.159 156.964 146.51 156.566 146.855 156.191L147.075 155.959L165.99 168.666Z" fill="#263238"/>
<path d="M166.145 168.398C166.097 168.487 166.044 168.577 165.99 168.666C165.936 168.755 165.889 168.85 165.829 168.945L146.855 156.191L147.075 155.959C147.153 155.882 147.224 155.799 147.302 155.727L166.145 168.398Z" fill="#154962" fill-opacity="0.65"/>
<path d="M162.395 174.077L162.205 174.332C161.895 174.743 161.58 175.165 161.252 175.587L141.903 162.565L142.808 161.269L142.992 161.019L162.395 174.077Z" fill="#263238"/>
<path d="M162.58 173.821C162.514 173.904 162.455 173.993 162.395 174.076L162.205 174.332L142.784 161.251L142.969 161.001L143.147 160.74L162.58 173.821Z" fill="#154962" fill-opacity="0.65"/>
<path d="M158.366 179.184C158.3 179.267 158.235 179.351 158.158 179.434C157.83 179.838 157.479 180.243 157.134 180.623L138.404 168.024C138.672 167.572 138.939 167.12 139.213 166.674C139.273 166.585 139.32 166.496 139.38 166.4L158.366 179.184Z" fill="#263238"/>
<path d="M158.568 178.958L158.366 179.202C158.3 179.285 158.235 179.368 158.157 179.452L139.213 166.715C139.273 166.626 139.32 166.537 139.38 166.442L139.552 166.174L158.568 178.958Z" fill="#154962" fill-opacity="0.65"/>
<path d="M154.075 184.125C153.997 184.197 153.926 184.28 153.855 184.357C153.497 184.749 153.134 185.142 152.771 185.546L135.267 173.773C135.505 173.31 135.749 172.846 135.999 172.37C136.053 172.281 136.095 172.186 136.154 172.097L154.075 184.125Z" fill="#263238"/>
<path d="M154.283 183.887C154.217 183.971 154.146 184.042 154.075 184.125C154.003 184.208 153.926 184.28 153.854 184.357L135.999 172.352C136.053 172.263 136.095 172.168 136.154 172.079C136.197 171.98 136.246 171.885 136.303 171.793L154.283 183.887Z" fill="#154962" fill-opacity="0.65"/>
<path d="M149.522 188.876L149.29 189.102C148.893 189.498 148.496 189.873 148.099 190.226L132.5 179.713C132.696 179.226 132.904 178.738 133.131 178.239C133.172 178.138 133.22 178.043 133.256 177.941L149.522 188.876Z" fill="#263238"/>
<path d="M149.748 188.656L149.522 188.876L149.29 189.102L133.131 178.239C133.172 178.138 133.22 178.043 133.256 177.941C133.291 177.84 133.345 177.757 133.387 177.656L149.748 188.656Z" fill="#154962" fill-opacity="0.65"/>
<path d="M144.605 193.389L144.349 193.603C143.891 193.966 143.451 194.316 143.04 194.62L130.357 186.093C130.464 185.588 130.607 185.047 130.774 184.476L130.869 184.161L144.605 193.389Z" fill="#263238"/>
<path d="M144.879 193.181L144.629 193.389L144.373 193.603L130.774 184.476L130.869 184.161C130.869 184.06 130.934 183.953 130.97 183.846L144.879 193.181Z" fill="#154962" fill-opacity="0.65"/>
<path d="M137.922 196.725C137.719 196.725 137.523 196.725 137.327 196.725C136.039 196.634 134.798 196.207 133.728 195.487C132.657 194.767 131.795 193.779 131.226 192.622C131.131 192.443 131.042 192.253 130.958 192.063L137.922 196.725Z" fill="#263238"/>
<path d="M138.469 196.713C138.285 196.713 138.1 196.713 137.922 196.713C137.743 196.713 137.523 196.713 137.327 196.713L131.226 192.61C131.131 192.432 131.042 192.241 130.958 192.051C130.875 191.861 130.809 191.7 130.738 191.522L138.469 196.713Z" fill="#154962" fill-opacity="0.65"/>
<path d="M162.58 154.728C173.918 160.674 171.257 169.891 164.413 178.31C162.486 180.718 160.388 182.983 158.134 185.088C160.003 182.645 161.913 180.248 163.669 177.757C169.865 168.987 172.596 161.899 162.58 154.728Z" fill="#263238"/>
<path d="M161.419 180.873C161.408 181.681 161.22 182.477 160.869 183.206C160.517 183.934 160.01 184.576 159.384 185.088C159.95 183.632 160.63 182.222 161.419 180.873Z" fill="#263238"/>
<path d="M136.071 196.505C140.624 198.045 145.207 195.452 148.938 193.026C149.504 192.675 150.039 192.271 150.599 191.902C148.699 193.826 146.446 195.366 143.963 196.439C141.499 197.456 138.481 197.884 136.071 196.505Z" fill="#263238"/>
<path d="M150.349 193.561C149.857 194.103 149.239 194.516 148.55 194.763C147.861 195.009 147.121 195.083 146.397 194.976C146.719 194.821 147.049 194.682 147.385 194.56C148.355 194.209 149.325 193.829 150.361 193.561H150.349Z" fill="#263238"/>
<path d="M61.0791 162.66C68.4261 162.045 75.4058 159.187 81.0709 154.473C76.5892 160.52 68.5009 163.689 61.0791 162.66Z" fill="#263238"/>
<path d="M62.6206 119.19C67.8284 109.54 74.8752 109.343 83.3385 115.248C85.5736 116.8 87.567 118.673 89.2545 120.807C87.2466 119.042 85.0923 117.451 82.8148 116.05C74.155 110.8 68.9889 110.753 62.6206 119.196V119.19Z" fill="#263238"/>
<path d="M47.7236 116.835C54.9669 114.457 58.3236 113.684 63.698 118.393C68.3701 122.484 73.6433 147.956 69.6854 158.653C69.3646 159.586 68.8602 160.445 68.2019 161.18C67.5437 161.916 66.7449 162.512 65.8525 162.934L47.7236 116.835Z" fill="#3E99B4"/>
<path d="M40.641 123.292C37.6652 130.428 50.3542 159.675 56.2881 163.059C61.0137 165.758 65.662 164.575 67.9653 160.377C70.7031 155.377 64.4479 121.961 59.6865 118.256C54.4133 114.148 43.849 115.646 40.641 123.292Z" fill="#99DFEB"/>
<path d="M59.6686 118.244L40.2898 124.648C40.3472 124.181 40.4652 123.723 40.6409 123.286C40.7064 123.12 40.7838 122.959 40.8612 122.799C40.919 122.663 40.9866 122.532 41.0635 122.406L57.4664 116.972C57.6152 117.031 57.7521 117.097 57.895 117.168C58.526 117.457 59.1212 117.818 59.6686 118.244Z" fill="#263238"/>
<path d="M57.8951 117.168L40.8613 122.799C40.9191 122.663 40.9868 122.532 41.0637 122.406C41.1351 122.264 41.2125 122.121 41.2898 121.996L57.0083 116.793C57.164 116.845 57.317 116.905 57.4666 116.972C57.6154 117.031 57.7523 117.121 57.8951 117.168Z" fill="#154962" fill-opacity="0.65"/>
<path d="M62.1507 122.264C62.1923 122.353 62.234 122.454 62.2697 122.555C62.4661 123.019 62.6506 123.506 62.8351 124.03L40.8614 131.308C40.7483 130.766 40.6471 130.249 40.5698 129.744C40.5698 129.643 40.5341 129.536 40.5103 129.429L62.1507 122.264Z" fill="#263238"/>
<path d="M62.0018 121.972C62.0434 122.068 62.0791 122.163 62.1208 122.264C62.1625 122.365 62.2041 122.454 62.2398 122.555L40.5399 129.744C40.5399 129.643 40.5042 129.536 40.4804 129.429C40.4566 129.322 40.4804 129.215 40.4387 129.108L62.0018 121.972Z" fill="#154962" fill-opacity="0.65"/>
<path d="M64.2039 128.418C64.2039 128.513 64.2575 128.62 64.2872 128.721C64.4301 129.221 64.567 129.726 64.6979 130.243L42.5397 137.575C42.373 137.069 42.2123 136.564 42.0635 136.07C42.0635 135.963 42.01 135.868 41.9802 135.767L64.2039 128.418Z" fill="#263238"/>
<path d="M64.1147 128.109L64.204 128.412C64.204 128.507 64.2576 128.614 64.2873 128.715L42.0637 136.07C42.0637 135.963 42.0101 135.868 41.9803 135.767C41.9506 135.666 41.9149 135.565 41.8792 135.47L64.1147 128.109Z" fill="#154962" fill-opacity="0.65"/>
<path d="M65.7812 134.72C65.8113 134.822 65.8351 134.925 65.8526 135.03C65.9717 135.547 66.0788 136.064 66.1859 136.588L44.7598 143.681C44.5574 143.193 44.3729 142.7 44.1646 142.212C44.1289 142.111 44.0872 142.016 44.0515 141.915L65.7812 134.72Z" fill="#263238"/>
<path d="M65.7215 134.411C65.7215 134.506 65.7632 134.614 65.787 134.721C65.8171 134.822 65.841 134.925 65.8584 135.03L44.1764 142.212C44.1407 142.111 44.099 142.016 44.0633 141.915C44.0276 141.814 43.9919 141.713 43.9502 141.612L65.7215 134.411Z" fill="#154962" fill-opacity="0.65"/>
<path d="M67.0666 141.13C67.0782 141.236 67.0961 141.341 67.1202 141.445C67.2095 141.969 67.2987 142.498 67.3821 143.021L47.3486 149.651C47.1284 149.175 46.9082 148.699 46.688 148.212C46.6463 148.117 46.5987 148.022 46.563 147.92L67.0666 141.13Z" fill="#263238"/>
<path d="M67.0071 140.821C67.0071 140.922 67.0428 141.029 67.0666 141.13C67.0782 141.236 67.0961 141.341 67.1202 141.445L46.6761 148.212C46.6344 148.117 46.5868 148.022 46.5511 147.92C46.5003 147.827 46.4566 147.729 46.4202 147.629L67.0071 140.821Z" fill="#154962" fill-opacity="0.65"/>
<path d="M68.0425 147.641L68.0783 147.962C68.1497 148.509 68.2092 149.038 68.2628 149.562L50.3779 155.508C50.11 155.056 49.8482 154.586 49.5922 154.104C49.5387 154.009 49.4911 153.914 49.4375 153.825L68.0425 147.641Z" fill="#263238"/>
<path d="M68.0069 147.32L68.0426 147.641L68.0784 147.962L49.5924 154.08C49.5388 153.985 49.4912 153.89 49.4376 153.801L49.2888 153.522L68.0069 147.32Z" fill="#154962" fill-opacity="0.65"/>
<path d="M68.6082 154.283C68.6082 154.402 68.6082 154.509 68.6082 154.616C68.6082 155.21 68.6082 155.757 68.6082 156.275L54.092 161.079C53.7587 160.682 53.4194 160.242 53.0742 159.759C53.0088 159.67 52.9433 159.586 52.8838 159.491L68.6082 154.283Z" fill="#263238"/>
<path d="M68.5962 153.985C68.5962 154.098 68.5962 154.205 68.5962 154.312C68.5962 154.419 68.5962 154.538 68.5962 154.645L53.0682 159.788C53.0027 159.699 52.9372 159.616 52.8777 159.521C52.8075 159.435 52.7438 159.343 52.6873 159.247L68.5962 153.985Z" fill="#154962" fill-opacity="0.65"/>
<path d="M67.1618 161.602C67.0408 161.761 66.9116 161.914 66.7749 162.06C65.9141 163.027 64.8132 163.75 63.5833 164.156C62.3533 164.562 61.0378 164.637 59.7697 164.373C59.5733 164.337 59.365 164.29 59.1746 164.242L67.1618 161.602Z" fill="#263238"/>
<path d="M67.507 161.168C67.4058 161.317 67.2927 161.465 67.1856 161.602C67.0646 161.761 66.9355 161.914 66.7987 162.06L59.7698 164.373C59.5734 164.337 59.3651 164.29 59.1746 164.242C58.9841 164.194 58.8056 164.147 58.6211 164.093L67.507 161.168Z" fill="#154962" fill-opacity="0.65"/>
<path d="M84.9575 116.972C85.7351 116.883 86.5228 116.965 87.2652 117.212C88.0076 117.46 88.6867 117.867 89.2546 118.405C87.7794 118.067 86.3404 117.587 84.9575 116.972Z" fill="#263238"/>
<path d="M63.3408 118.084C68.8164 121.651 70.5364 134.631 70.6138 140.821C70.346 139.834 70.1317 138.841 69.9115 137.848C69.2747 134.988 68.614 131.831 67.8998 129.018C67.4333 127.075 66.8691 125.156 66.2095 123.269C65.5072 121.414 64.793 119.493 63.3408 118.078V118.084Z" fill="#263238"/>
<path d="M69.7329 134.911C70.3411 135.445 70.8247 136.105 71.1497 136.846C71.4747 137.586 71.633 138.389 71.6136 139.198C70.8778 137.819 70.249 136.386 69.7329 134.911Z" fill="#263238"/>
<path d="M67.5071 162.03C70.2865 158.754 70.5782 154.378 71.0781 150.299C71.4293 154.366 70.9293 159.319 67.5071 162.03Z" fill="#263238"/>
<path d="M72.1732 151.559C72.2672 152.286 72.1795 153.025 71.9177 153.71C71.656 154.395 71.2285 155.004 70.6733 155.484C70.7626 155.121 70.8876 154.794 71.0007 154.467C71.3637 153.504 71.7089 152.517 72.191 151.559H72.1732Z" fill="#263238"/>
<path d="M87.9928 124.85C87.2548 129.881 88.0642 150.798 95.6467 152.273C103.229 153.748 103.479 142.605 111.716 134.608C111.716 134.608 106.437 128.448 99.557 125.778C92.6768 123.108 87.9928 124.85 87.9928 124.85Z" fill="#3E99B4"/>
<path d="M107.544 139.715C107.199 140.25 106.866 140.791 106.55 141.326C102.394 138.607 97.7427 136.73 92.8614 135.803C91.2902 135.516 89.6972 135.365 88.1001 135.351C88.0405 134.703 87.987 134.066 87.9453 133.448C91.564 133.442 98.95 134.227 107.544 139.715Z" fill="#E97B0C"/>
<path d="M109.508 137.01C109.11 137.515 108.723 138.027 108.36 138.538C99.2595 132.895 91.4627 132.17 87.8619 132.2C87.8262 131.54 87.8024 130.897 87.7905 130.291C91.671 130.237 99.8844 130.981 109.508 137.01Z" fill="#E97B0C"/>
<path d="M87.8024 127.336C88.3499 133.502 89.2308 158.029 100.14 150.317C101.735 148.997 102.86 147.094 103.949 145.215C106.056 141.422 108.163 137.277 111.716 134.59C110.16 136.133 108.829 137.889 107.764 139.804C105.027 144.186 103.414 151.327 97.7239 152.802C87.4869 154.883 87.5464 133.823 87.8024 127.336Z" fill="#263238"/>
<path d="M108.36 138.526C109.348 137.77 110.386 137.08 111.466 136.463C111.121 137.004 110.666 137.467 110.131 137.823C109.596 138.178 108.993 138.417 108.36 138.526Z" fill="#263238"/>
<path d="M92.6767 144.311C93.4445 146.951 93.9028 151.197 96.6227 152.499C93.4088 151.946 92.5755 147.017 92.6767 144.311Z" fill="#263238"/>
<path d="M96.575 143.675C96.944 146.398 96.7714 150.667 99.2712 152.35C96.1763 151.333 96.0751 146.339 96.575 143.675Z" fill="#263238"/>
<path d="M125.965 137.931C121.203 139.715 103.348 150.655 105.729 157.981C108.11 165.306 119.876 160.044 131.053 162.738C131.485 157.985 131.398 153.2 130.792 148.467C129.78 141.136 125.965 137.931 125.965 137.931Z" fill="#3E99B4"/>
<path d="M122.507 161.852C121.87 161.852 121.233 161.852 120.608 161.887C120.919 157.022 120.286 152.142 118.745 147.516C118.227 146.002 117.578 144.535 116.805 143.134L117.608 142.593L117.775 142.486L118.37 142.07C120.162 145.179 123.03 151.874 122.507 161.852Z" fill="#E97B0C"/>
<path d="M125.834 161.941C125.197 161.899 124.56 161.875 123.923 161.864C124.304 151.446 121.209 144.472 119.442 141.386C119.602 141.279 119.763 141.184 119.918 141.095C120.198 140.916 120.477 140.75 120.745 140.595L121.078 140.393C123.001 143.681 126.262 151.012 125.834 161.941Z" fill="#E97B0C"/>
<path d="M123.685 138.954C119.061 142.165 100.664 153.117 107.461 159.592C109.877 161.852 113.413 161.739 116.597 161.792C121.055 161.715 125.614 161.655 130.024 162.464C125.542 162.101 121.096 162.411 116.62 162.69C113.311 162.815 109.3 162.934 106.657 160.431C98.7832 152.505 117.793 141.945 123.685 138.954Z" fill="#263238"/>
<path d="M125.578 162.155C126.794 162.442 127.987 162.815 129.149 163.273C128.509 163.345 127.86 163.283 127.245 163.091C126.63 162.898 126.062 162.58 125.578 162.155Z" fill="#263238"/>
<path d="M111.234 151.494C109.3 153.444 105.818 155.918 106.009 158.926C104.919 155.852 108.818 152.725 111.234 151.494Z" fill="#263238"/>
<path d="M113.692 154.58C111.496 156.227 107.681 158.147 107.425 161.162C106.83 157.963 111.121 155.442 113.692 154.58Z" fill="#263238"/>
<g opacity="0.6">
<path d="M95.0932 50.1282C90.0105 55.3725 93.2184 70.4156 99.7772 69.9578C105.134 69.5773 108.383 63.6551 109.044 59.6833C109.705 55.7114 108.395 50.2887 104.521 48.606C101.241 47.179 96.9561 48.2077 95.0932 50.1282Z" fill="#C4C7C8"/>
<path d="M107.55 40.4184C105.723 41.786 106.991 45.9778 109.241 46.7627C111.49 47.5476 113.847 44.8541 113.46 43.0941C113.074 41.3341 109.205 39.1876 107.55 40.4184Z" fill="#C4C7C8"/>
<path d="M194.207 117.638C195.963 117.989 197.742 115.069 197.028 113.351C196.314 111.633 194.177 112.12 193.356 113.268C192.535 114.415 192.63 117.323 194.207 117.638Z" fill="#C4C7C8"/>
</g>
</svg>
