<svg width="31" height="33" viewBox="0 0 31 33" fill="none" xmlns="http://www.w3.org/2000/svg">
<path d="M17.5667 0.688889C16.9704 0.241724 16.2453 0 15.5 0C14.7547 0 14.0296 0.241724 13.4333 0.688889L1.37778 9.73055C0.949991 10.0514 0.60278 10.4674 0.36364 10.9457C0.1245 11.424 0 11.9514 0 12.4861V28.8472C0 29.7607 0.362896 30.6368 1.00885 31.2828C1.65481 31.9288 2.53092 32.2917 3.44444 32.2917H10.1611C10.6635 32.2917 11.1454 32.0921 11.5007 31.7368C11.856 31.3815 12.0556 30.8996 12.0556 30.3972V21.9583C12.0556 21.0448 12.4185 20.1687 13.0644 19.5227C13.7104 18.8768 14.5865 18.5139 15.5 18.5139C16.4135 18.5139 17.2896 18.8768 17.9356 19.5227C18.5815 20.1687 18.9444 21.0448 18.9444 21.9583V30.3972C18.9444 30.8996 19.144 31.3815 19.4993 31.7368C19.8546 32.0921 20.3365 32.2917 20.8389 32.2917H27.5556C28.4691 32.2917 29.3452 31.9288 29.9911 31.2828C30.6371 30.6368 31 29.7607 31 28.8472V12.4861C31 11.9514 30.8755 11.424 30.6364 10.9457C30.3972 10.4674 30.05 10.0514 29.6222 9.73055L17.5667 0.688889Z" fill="white"/>
</svg>
