<svg width="269" height="116" viewBox="0 0 269 116" fill="none" xmlns="http://www.w3.org/2000/svg">
<path d="M69.4 93C66.7867 93 64.3867 92.6 62.2 91.8C60.0667 91 58.36 89.8 57.08 88.2C55.8 86.5467 55.16 84.4667 55.16 81.96C55.16 79.8267 55.8 78.0133 57.08 76.52C58.36 75.0267 60.0667 73.88 62.2 73.08C64.3867 72.28 66.7867 71.88 69.4 71.88C70.9467 71.88 72.36 72.0133 73.64 72.28C74.92 72.4933 75.8 72.76 76.28 73.08C76.28 71.8533 75.7733 70.7867 74.76 69.88C73.7467 68.92 71.9867 68.44 69.48 68.44C68.3067 68.44 67.3733 68.5467 66.68 68.76C66.04 68.92 65.4533 69.1333 64.92 69.4C64.3867 69.6667 63.7733 69.9067 63.08 70.12C62.44 70.28 61.56 70.36 60.44 70.36C58.7867 70.36 57.4533 69.9333 56.44 69.08C55.48 68.1733 55 66.8133 55 65C55 63.3467 55.4533 61.9333 56.36 60.76C57.32 59.5333 58.5467 58.52 60.04 57.72C61.5333 56.92 63.1333 56.3333 64.84 55.96C66.6 55.5867 68.28 55.4 69.88 55.4C74.6267 55.4 78.4933 56.28 81.48 58.04C84.4667 59.7467 86.68 61.9867 88.12 64.76C89.56 67.5333 90.28 70.5467 90.28 73.8C90.28 75.6133 90.12 77.2933 89.8 78.84C89.5333 80.3867 89.16 81.5867 88.68 82.44C89.4267 83.08 89.9867 83.8267 90.36 84.68C90.7867 85.5333 91 86.4133 91 87.32C91 88.8133 90.4933 90.1467 89.48 91.32C88.52 92.44 87.1333 93 85.32 93C83.9333 93 82.84 92.7867 82.04 92.36C81.24 91.9333 80.44 91.3733 79.64 90.68C78.36 91.4267 76.9467 92.0133 75.4 92.44C73.8533 92.8133 71.8533 93 69.4 93ZM71 84.92C72.2267 84.92 73.1333 84.68 73.72 84.2C74.36 83.6667 74.68 83.08 74.68 82.44C74.68 81.8 74.36 81.24 73.72 80.76C73.1333 80.2267 72.2267 79.96 71 79.96C69.8267 79.96 68.92 80.2267 68.28 80.76C67.64 81.24 67.32 81.8 67.32 82.44C67.32 83.08 67.64 83.6667 68.28 84.2C68.92 84.68 69.8267 84.92 71 84.92ZM116.757 93C114.89 93 112.997 92.6267 111.077 91.88C109.157 91.1333 107.424 90.04 105.877 88.6C104.384 87.16 103.29 85.4267 102.597 83.4C102.117 82.0667 101.77 80.4133 101.557 78.44C101.344 76.4667 101.184 74.36 101.077 72.12C101.024 69.88 100.997 67.6933 100.997 65.56C98.9169 65.5067 96.9169 65.32 94.9969 65C93.1302 64.68 91.5835 64.0933 90.3569 63.24C89.1835 62.3333 88.5969 61.0267 88.5969 59.32C88.5969 57.24 89.1569 55.6933 90.2769 54.68C91.3969 53.6133 92.8902 52.92 94.7569 52.6C96.6769 52.2267 98.7569 52.0133 100.997 51.96C101.05 50.3067 101.184 48.6267 101.397 46.92C101.664 45.16 102.09 43.5333 102.677 42.04C103.264 40.5467 104.09 39.3467 105.157 38.44C106.224 37.48 107.61 37 109.317 37C111.61 37 113.264 37.72 114.277 39.16C115.344 40.6 116.01 42.4667 116.277 44.76C116.544 47.0533 116.65 49.4533 116.597 51.96C119.37 51.9067 121.824 52.0133 123.957 52.28C126.09 52.5467 127.77 53.1333 128.997 54.04C130.224 54.9467 130.837 56.3867 130.837 58.36C130.837 60.3867 130.144 61.9067 128.757 62.92C127.37 63.9333 125.557 64.6267 123.317 65C121.077 65.32 118.704 65.5067 116.197 65.56C116.197 66.5733 116.17 67.64 116.117 68.76C116.117 69.8267 116.117 70.92 116.117 72.04C116.117 75.08 116.33 77.24 116.757 78.52C117.077 79.48 117.504 80.0933 118.037 80.36C118.624 80.6267 119.344 80.7867 120.197 80.84C121.05 80.84 122.09 81 123.317 81.32C124.544 81.5867 125.504 82.2533 126.197 83.32C126.89 84.3333 127.237 85.64 127.237 87.24C127.237 89.0533 126.277 90.4667 124.357 91.48C122.49 92.4933 119.957 93 116.757 93ZM141.001 54.2C138.387 54.2 136.174 53.2667 134.361 51.4C132.547 49.48 131.641 47.16 131.641 44.44C131.641 42.6267 132.041 41 132.841 39.56C133.694 38.12 134.814 36.9733 136.201 36.12C137.641 35.2133 139.241 34.76 141.001 34.76C142.707 34.76 144.254 35.2133 145.641 36.12C147.081 36.9733 148.227 38.12 149.081 39.56C149.934 41 150.361 42.6267 150.361 44.44C150.361 46.2533 149.934 47.9067 149.081 49.4C148.227 50.84 147.081 52.0133 145.641 52.92C144.254 53.7733 142.707 54.2 141.001 54.2ZM141.001 93C138.867 93 137.267 92.3867 136.201 91.16C135.187 89.9333 134.494 88.0667 134.121 85.56C133.801 83 133.614 79.72 133.561 75.72C133.561 71.72 133.721 68.44 134.041 65.88C134.414 63.32 135.134 61.4533 136.201 60.28C137.267 59.0533 138.867 58.44 141.001 58.44C143.134 58.44 144.707 59.0533 145.721 60.28C146.787 61.4533 147.507 63.32 147.881 65.88C148.254 68.44 148.441 71.72 148.441 75.72C148.494 79.72 148.334 83 147.961 85.56C147.587 88.0667 146.867 89.9333 145.801 91.16C144.734 92.3867 143.134 93 141.001 93ZM179.335 93C177.468 93 175.575 92.6267 173.655 91.88C171.735 91.1333 170.002 90.04 168.455 88.6C166.962 87.16 165.868 85.4267 165.175 83.4C164.695 82.0667 164.348 80.4133 164.135 78.44C163.922 76.4667 163.762 74.36 163.655 72.12C163.602 69.88 163.575 67.6933 163.575 65.56C161.495 65.5067 159.495 65.32 157.575 65C155.708 64.68 154.162 64.0933 152.935 63.24C151.762 62.3333 151.175 61.0267 151.175 59.32C151.175 57.24 151.735 55.6933 152.855 54.68C153.975 53.6133 155.468 52.92 157.335 52.6C159.255 52.2267 161.335 52.0133 163.575 51.96C163.628 50.3067 163.762 48.6267 163.975 46.92C164.242 45.16 164.668 43.5333 165.255 42.04C165.842 40.5467 166.668 39.3467 167.735 38.44C168.802 37.48 170.188 37 171.895 37C174.188 37 175.842 37.72 176.855 39.16C177.922 40.6 178.588 42.4667 178.855 44.76C179.122 47.0533 179.228 49.4533 179.175 51.96C181.948 51.9067 184.402 52.0133 186.535 52.28C188.668 52.5467 190.348 53.1333 191.575 54.04C192.802 54.9467 193.415 56.3867 193.415 58.36C193.415 60.3867 192.722 61.9067 191.335 62.92C189.948 63.9333 188.135 64.6267 185.895 65C183.655 65.32 181.282 65.5067 178.775 65.56C178.775 66.5733 178.748 67.64 178.695 68.76C178.695 69.8267 178.695 70.92 178.695 72.04C178.695 75.08 178.908 77.24 179.335 78.52C179.655 79.48 180.082 80.0933 180.615 80.36C181.202 80.6267 181.922 80.7867 182.775 80.84C183.628 80.84 184.668 81 185.895 81.32C187.122 81.5867 188.082 82.2533 188.775 83.32C189.468 84.3333 189.815 85.64 189.815 87.24C189.815 89.0533 188.855 90.4667 186.935 91.48C185.068 92.4933 182.535 93 179.335 93ZM208.619 93C206.005 93 203.605 92.6 201.419 91.8C199.285 91 197.579 89.8 196.299 88.2C195.019 86.5467 194.379 84.4667 194.379 81.96C194.379 79.8267 195.019 78.0133 196.299 76.52C197.579 75.0267 199.285 73.88 201.419 73.08C203.605 72.28 206.005 71.88 208.619 71.88C210.165 71.88 211.579 72.0133 212.859 72.28C214.139 72.4933 215.019 72.76 215.499 73.08C215.499 71.8533 214.992 70.7867 213.979 69.88C212.965 68.92 211.205 68.44 208.699 68.44C207.525 68.44 206.592 68.5467 205.899 68.76C205.259 68.92 204.672 69.1333 204.139 69.4C203.605 69.6667 202.992 69.9067 202.299 70.12C201.659 70.28 200.779 70.36 199.659 70.36C198.005 70.36 196.672 69.9333 195.659 69.08C194.699 68.1733 194.219 66.8133 194.219 65C194.219 63.3467 194.672 61.9333 195.579 60.76C196.539 59.5333 197.765 58.52 199.259 57.72C200.752 56.92 202.352 56.3333 204.059 55.96C205.819 55.5867 207.499 55.4 209.099 55.4C213.845 55.4 217.712 56.28 220.699 58.04C223.685 59.7467 225.899 61.9867 227.339 64.76C228.779 67.5333 229.499 70.5467 229.499 73.8C229.499 75.6133 229.339 77.2933 229.019 78.84C228.752 80.3867 228.379 81.5867 227.899 82.44C228.645 83.08 229.205 83.8267 229.579 84.68C230.005 85.5333 230.219 86.4133 230.219 87.32C230.219 88.8133 229.712 90.1467 228.699 91.32C227.739 92.44 226.352 93 224.539 93C223.152 93 222.059 92.7867 221.259 92.36C220.459 91.9333 219.659 91.3733 218.859 90.68C217.579 91.4267 216.165 92.0133 214.619 92.44C213.072 92.8133 211.072 93 208.619 93ZM210.219 84.92C211.445 84.92 212.352 84.68 212.939 84.2C213.579 83.6667 213.899 83.08 213.899 82.44C213.899 81.8 213.579 81.24 212.939 80.76C212.352 80.2267 211.445 79.96 210.219 79.96C209.045 79.96 208.139 80.2267 207.499 80.76C206.859 81.24 206.539 81.8 206.539 82.44C206.539 83.08 206.859 83.6667 207.499 84.2C208.139 84.68 209.045 84.92 210.219 84.92ZM248.016 93C243.323 93 239.59 92.2267 236.816 90.68C234.043 89.1333 232.656 87.1333 232.656 84.68C232.656 82.9733 233.216 81.72 234.336 80.92C235.51 80.0667 236.896 79.64 238.496 79.64C239.776 79.64 240.71 79.8533 241.296 80.28C241.936 80.7067 242.496 81.1333 242.976 81.56C243.456 81.9867 244.043 82.2 244.736 82.2C245.856 82.2 246.416 81.8 246.416 81C246.416 79.9333 245.776 79.16 244.496 78.68C243.27 78.2 241.723 77.5333 239.856 76.68C237.296 75.4533 235.456 74.04 234.336 72.44C233.216 70.7867 232.656 69.1067 232.656 67.4C232.656 65.3733 233.376 63.4533 234.816 61.64C236.256 59.8267 238.283 58.3333 240.896 57.16C243.563 55.9867 246.736 55.4 250.416 55.4C253.51 55.4 256.283 55.8267 258.736 56.68C261.19 57.5333 263.136 58.7067 264.576 60.2C266.016 61.64 266.736 63.24 266.736 65C266.736 66.6533 266.203 67.9067 265.136 68.76C264.07 69.6133 262.683 70.04 260.976 70.04C260.016 70.04 259.243 69.9067 258.656 69.64C258.123 69.32 257.616 69.0267 257.136 68.76C256.71 68.4933 256.096 68.36 255.296 68.36C254.87 68.36 254.496 68.52 254.176 68.84C253.856 69.1067 253.696 69.4533 253.696 69.88C253.696 70.2 253.83 70.52 254.096 70.84C254.363 71.16 254.816 71.4267 255.456 71.64C257.11 72.1733 258.71 72.8667 260.256 73.72C261.856 74.52 263.163 75.5867 264.176 76.92C265.243 78.2 265.776 79.8533 265.776 81.88C265.776 85.3467 264.15 88.0667 260.896 90.04C257.643 92.0133 253.35 93 248.016 93Z" fill="#154962"/>
<path d="M13.28 93.08C10.88 93.08 8.93333 92.3067 7.44 90.76C5.94667 89.16 4.8 87.0533 4 84.44C3.2 81.7733 2.66667 78.8667 2.4 75.72C2.13333 72.5733 2 69.4533 2 66.36C2 62.7333 2.48 59.1867 3.44 55.72C4.45333 52.2533 5.97333 49.1333 8 46.36C10.08 43.5333 12.6933 41.2933 15.84 39.64C18.9867 37.9867 22.72 37.16 27.04 37.16C31.4133 37.16 35.36 38.0667 38.88 39.88C42.4533 41.6933 45.3067 44.28 47.44 47.64C49.5733 51 50.64 55 50.64 59.64C50.64 63.8 50 67.3733 48.72 70.36C47.44 73.3467 45.7067 75.8 43.52 77.72C41.3867 79.5867 38.9867 80.9733 36.32 81.88C33.7067 82.7867 31.04 83.2133 28.32 83.16C25.6 83.0533 23.0667 82.52 20.72 81.56C20.9867 82.84 21.12 84.1467 21.12 85.48C21.1733 86.8133 20.96 88.0667 20.48 89.24C20.0533 90.36 19.2533 91.2933 18.08 92.04C16.96 92.7333 15.36 93.08 13.28 93.08ZM27.84 70.68C29.76 70.68 31.4133 69.9867 32.8 68.6C34.24 67.16 34.96 65.5067 34.96 63.64C34.96 61.72 34.24 60.0667 32.8 58.68C31.4133 57.24 29.76 56.52 27.84 56.52C25.92 56.52 24.24 57.24 22.8 58.68C21.4133 60.0667 20.72 61.72 20.72 63.64C20.72 65.5067 21.4133 67.16 22.8 68.6C24.24 69.9867 25.92 70.68 27.84 70.68Z" fill="#E97B0C"/>
<circle cx="28.2549" cy="27" r="5" fill="#154962"/>
<circle cx="53.2549" cy="44" r="4" fill="#154962"/>
<circle cx="46.2549" cy="30" r="7" fill="#99DFEB"/>
</svg>
