<svg width="206" height="203" viewBox="0 0 206 203" fill="none" xmlns="http://www.w3.org/2000/svg">
<g filter="url(#filter0_d_1_2702)">
<mask id="mask0_1_2702" style="mask-type:alpha" maskUnits="userSpaceOnUse" x="4" y="0" width="198" height="195">
<ellipse cx="103" cy="97.1782" rx="99" ry="97" fill="#C9C4C4"/>
</mask>
<g mask="url(#mask0_1_2702)">
<path d="M107.602 4.90313C124.717 8.34728 144.169 17.8691 152.12 34.3754C164.138 59.3181 185.755 59.0662 191.311 106.281C192.153 113.173 192.244 120.136 191.581 127.047C191.249 130.427 190.699 133.782 189.937 137.091C183.227 166.279 161.083 184.49 135.705 189.761C102.33 196.741 82.554 175.847 70.7193 162.102C58.8845 148.358 19.5881 135.804 13.7624 89.4133C12.8429 82.3341 12.7445 75.1723 13.4692 68.0705C15.1822 51.871 21.9468 34.6044 34.0793 23.2552C34.9953 22.4033 35.9341 21.5789 36.8959 20.782C55.7381 5.17334 84.2669 0.208625 107.602 4.90313Z" fill="#EDA61A" fill-opacity="0.83"/>
<path opacity="0.7" d="M107.602 4.90313C124.717 8.34728 144.169 17.8691 152.12 34.3754C164.138 59.3181 185.755 59.0662 191.311 106.281C192.153 113.173 192.244 120.136 191.581 127.047C191.249 130.427 190.699 133.782 189.937 137.091C183.227 166.279 161.083 184.49 135.705 189.761C102.33 196.741 82.554 175.847 70.7193 162.102C58.8845 148.358 19.5881 135.804 13.7624 89.4133C12.8429 82.3341 12.7445 75.1723 13.4692 68.0705C15.1822 51.871 21.9468 34.6044 34.0793 23.2552C34.9953 22.4033 35.9341 21.5789 36.8959 20.782C55.7381 5.17334 84.2669 0.208625 107.602 4.90313Z" fill="white"/>
<g opacity="0.3">
<path d="M151.386 2.47113C148.343 4.14127 145.149 5.52135 141.846 6.59313C136.534 8.29689 132.063 13.0051 134.976 19.2935C137.889 25.5818 140.784 31.6595 143.248 35.4655C145.712 39.2714 151.95 41.5843 156.502 37.9295C161.055 34.2747 159.58 30.8397 161.719 24.1895C163.858 17.5393 167.952 14.8555 168.465 10.9075C168.978 6.95953 166.061 0.62997 160.56 0.0208302C157.303 -0.350837 154.025 0.524606 151.386 2.47113Z" fill="black"/>
<path d="M125.931 27.4001C125.931 27.4001 121.374 27.913 119.011 30.7755C116.647 33.638 120.568 37.4898 124.383 39.6241C128.198 41.7584 134.628 40.4622 137.207 37.3341C139.786 34.206 137.633 29.1909 135.178 28.2062C132.723 27.2215 125.931 27.4001 125.931 27.4001Z" fill="black"/>
<path d="M109.805 14.7181C109.805 14.7181 112.892 20.8461 117.215 23.5208C121.539 26.1955 126.554 26.2688 129.435 22.6048C132.315 18.9408 129.499 14.2188 126.274 11.6128C123.05 9.00679 116.528 7.49081 112.992 8.00835C109.457 8.52589 109.397 13.3395 109.805 14.7181Z" fill="black"/>
<path d="M114.357 0.639142C114.357 0.639142 116.482 3.18562 121.813 5.53058C127.145 7.87554 131.601 7.66486 134.34 5.94736C137.079 4.22986 138.237 -0.295178 135.714 -3.8859C133.19 -7.47662 125.99 -9.02466 122.665 -8.18652C119.34 -7.34838 114.916 -4.98052 113.963 -3.21264C113.011 -1.44476 113.176 -0.455478 114.357 0.639142Z" fill="black"/>
<path d="M135.178 -9.34525C135.178 -9.34525 138.961 -2.93325 143.129 -0.798974C147.297 1.33531 152.055 -0.991335 152.939 -3.47827C153.823 -5.96521 153.342 -10.2887 148.469 -13.9298C143.596 -17.5709 136.341 -15.7618 135.338 -14.2184C134.335 -12.6749 135.178 -9.34525 135.178 -9.34525Z" fill="black"/>
</g>
<g opacity="0.3">
<path d="M191.164 149.114C189.458 146.089 188.041 142.91 186.932 139.619C185.173 134.325 180.433 129.905 174.163 132.891C167.893 135.877 161.847 138.845 158.083 141.341C154.318 143.837 152.06 150.107 155.761 154.623C159.461 159.139 162.887 157.623 169.551 159.689C176.215 161.754 178.954 165.817 182.925 166.289C186.895 166.76 193.175 163.77 193.724 158.26C194.057 154.997 193.142 151.729 191.164 149.114Z" fill="black"/>
<path d="M165.951 123.933C165.951 123.933 165.388 119.38 162.502 117.063C159.617 114.745 155.806 118.675 153.7 122.531C151.593 126.388 152.976 132.781 156.127 135.319C159.278 137.856 164.279 135.653 165.237 133.189C166.194 130.725 165.951 123.933 165.951 123.933Z" fill="black"/>
<path d="M178.455 107.669C178.455 107.669 172.349 110.82 169.753 115.176C167.156 119.531 167.096 124.542 170.815 127.381C174.534 130.221 179.201 127.354 181.77 124.102C184.34 120.85 185.796 114.315 185.228 110.765C184.66 107.216 179.829 107.243 178.455 107.669Z" fill="black"/>
<path d="M192.584 112.066C192.584 112.066 190.06 114.219 187.775 119.577C185.489 124.936 185.755 129.383 187.5 132.103C189.245 134.824 193.784 135.937 197.347 133.358C200.91 130.78 202.385 123.58 201.506 120.264C200.626 116.948 198.231 112.551 196.431 111.599C194.631 110.646 193.665 110.875 192.584 112.066Z" fill="black"/>
<path d="M202.797 132.772C202.797 132.772 196.449 136.628 194.343 140.842C192.236 145.056 194.631 149.764 197.132 150.625C199.633 151.486 203.942 150.95 207.528 146.045C211.115 141.14 209.237 133.894 207.675 132.914C206.113 131.934 202.797 132.772 202.797 132.772Z" fill="black"/>
</g>
<g opacity="0.3">
<path d="M48.2267 151.449C46.536 154.482 45.1345 157.667 44.0405 160.962C42.3093 166.266 37.5873 170.704 31.299 167.745C25.0106 164.786 18.9605 161.86 15.182 159.368C11.4035 156.877 9.12262 150.625 12.8049 146.086C16.4873 141.547 19.9177 143.05 26.5724 140.961C33.2272 138.873 35.9477 134.787 39.9185 134.302C43.8894 133.816 50.1777 136.775 50.7502 142.28C51.1003 145.546 50.1984 148.823 48.2267 151.449Z" fill="black"/>
<path d="M23.1283 176.74C23.1283 176.74 22.5878 181.293 19.7116 183.638C16.8354 185.983 13.0065 182.062 10.8859 178.206C8.76541 174.349 10.1165 167.956 13.2584 165.409C16.4003 162.863 21.4062 165.034 22.3726 167.493C23.339 169.953 23.1283 176.74 23.1283 176.74Z" fill="black"/>
<path d="M35.705 192.949C35.705 192.949 29.5816 189.821 26.9526 185.479C24.3237 181.137 24.2596 176.108 27.9648 173.269C31.67 170.429 36.3508 173.268 38.9568 176.502C41.5628 179.735 43.0284 186.271 42.4697 189.821C41.9109 193.37 37.079 193.366 35.705 192.949Z" fill="black"/>
<path d="M49.8159 188.474C49.8159 188.474 47.2877 186.349 44.9977 181C42.7077 175.65 42.9276 171.203 44.6634 168.473C46.3992 165.744 50.9288 164.617 54.5058 167.173C58.0828 169.728 59.5804 176.932 58.7194 180.253C57.8584 183.573 55.4813 187.979 53.6814 188.955C51.8815 189.931 50.9013 189.679 49.8159 188.474Z" fill="black"/>
<path d="M59.9377 167.736C59.9377 167.736 53.5715 163.912 51.4463 159.73C49.3212 155.548 51.6937 150.804 54.1943 149.933C56.695 149.063 61.0094 149.581 64.6138 154.477C68.2183 159.373 66.3771 166.618 64.8199 167.608C63.2627 168.597 59.9377 167.736 59.9377 167.736Z" fill="black"/>
</g>
<path d="M92.8178 70.5895C92.8178 70.5895 92.772 64.008 94.2467 63.5134C95.7215 63.0188 97.8558 66.7927 98.3458 67.9423C98.8359 69.0918 92.8178 70.5895 92.8178 70.5895Z" fill="#263238"/>
<path d="M92.5933 70.8826V70.5895C92.5933 69.4628 92.6253 63.8157 94.1825 63.2981C95.9367 62.7119 98.19 66.985 98.561 67.8507C98.5967 67.933 98.6133 68.0224 98.6093 68.1121C98.6053 68.2017 98.581 68.2893 98.5381 68.3682C97.9702 69.5132 93.3993 70.6811 92.8772 70.8139L92.5933 70.8826ZM94.526 63.6966C94.4558 63.6976 94.3862 63.71 94.3199 63.7332C93.4039 64.0401 93.0558 67.8003 93.0467 70.2964C94.9428 69.8017 97.7824 68.8491 98.1259 68.1621C98.1356 68.1421 98.1407 68.1202 98.1407 68.098C98.1407 68.0758 98.1356 68.0538 98.1259 68.0339C97.5946 66.7652 95.7397 63.6966 94.526 63.6966Z" fill="#263238"/>
<path d="M113.414 55.6175C113.414 55.6175 114.834 49.2055 116.382 49.036C117.93 48.8666 119.171 53.0344 119.391 54.2664C119.611 55.4984 113.414 55.6175 113.414 55.6175Z" fill="#263238"/>
<path d="M113.13 55.851L113.19 55.5671C113.432 54.4679 114.729 48.9673 116.359 48.807C118.191 48.633 119.451 53.2954 119.62 54.2252C119.634 54.3126 119.63 54.4022 119.606 54.4876C119.582 54.5731 119.54 54.6523 119.483 54.7198C118.667 55.7137 113.955 55.8327 113.419 55.8465L113.13 55.851ZM116.446 49.2421H116.387C115.416 49.3337 114.248 52.9061 113.684 55.3564C115.645 55.2969 118.622 54.9992 119.107 54.4083C119.123 54.3923 119.135 54.3728 119.142 54.3514C119.149 54.3299 119.151 54.3071 119.148 54.2847C118.91 52.9061 117.701 49.2421 116.446 49.2421Z" fill="#263238"/>
<path d="M145.062 71.194C145.062 71.194 146.482 64.7821 148.03 64.6126C149.578 64.4431 150.819 68.6155 151.043 69.8429C151.268 71.0704 145.062 71.194 145.062 71.194Z" fill="#263238"/>
<path d="M144.778 71.4276L144.837 71.1437C145.08 70.0445 146.376 64.5439 148.007 64.3882C149.839 64.205 151.098 68.8766 151.268 69.8017C151.282 69.8892 151.278 69.9789 151.254 70.0644C151.23 70.1498 151.188 70.2291 151.13 70.2964C150.315 71.2902 145.602 71.4139 145.066 71.4231L144.778 71.4276ZM148.112 64.837H148.048C147.077 64.9332 145.909 68.5239 145.346 70.9513C147.306 70.8918 150.283 70.5987 150.768 70.0033C150.784 69.9872 150.796 69.9677 150.804 69.9463C150.811 69.9248 150.813 69.902 150.81 69.8796C150.558 68.4781 149.349 64.837 148.112 64.837Z" fill="#263238"/>
<path d="M128.171 53.9778C128.171 53.9778 129.59 47.5658 131.138 47.3964C132.687 47.2269 133.928 51.3947 134.152 52.6267C134.377 53.8587 128.171 53.9778 128.171 53.9778Z" fill="#263238"/>
<path d="M127.896 54.2114L127.956 53.9274C128.198 52.8282 129.494 47.3277 131.125 47.1674C132.957 46.9887 134.216 51.6558 134.386 52.5855C134.4 52.673 134.396 52.7626 134.372 52.848C134.348 52.9334 134.306 53.0127 134.248 53.0801C133.438 54.074 128.72 54.1931 128.185 54.2068L127.896 54.2114ZM131.23 47.6208H131.171C130.204 47.7124 129.032 51.2848 128.468 53.7351C130.429 53.6755 133.406 53.3778 133.891 52.787C133.907 52.771 133.92 52.7516 133.928 52.7303C133.936 52.7089 133.939 52.6861 133.937 52.6634C133.667 51.2527 132.476 47.6208 131.221 47.6208H131.23Z" fill="#263238"/>
<path d="M102.115 204.261C102.115 204.261 105.358 166.476 105.358 161.796C105.358 157.115 103.196 146.338 103.196 146.338C103.196 146.338 101.396 140.224 100.677 138.424C99.9579 136.624 97.0771 131.586 98.5198 129.424C99.9625 127.262 101.758 130.143 101.758 130.143C101.733 127.848 101.493 125.56 101.039 123.31C100.315 120.067 100.123 115.066 100.123 115.066C98.3549 109.758 97.9106 99.3656 97.4664 98.2573C97.0221 97.1489 93.0467 92.949 91.0544 86.0928C89.0621 79.2365 92.8222 70.6124 92.8222 70.6124C92.8222 70.6124 92.6024 68.4002 95.6985 67.2965C98.7946 66.1927 104.08 71.2536 104.08 71.2536C104.08 71.2536 107.167 57.9716 113.579 54.0053C119.991 50.039 122.395 57.0831 123.059 58.6311C123.059 58.6311 128.189 50.9046 132.169 52.013C136.149 53.1214 141.018 60.4173 142.341 63.5134C143.665 66.6095 143.23 71.0337 143.23 71.0337C143.23 71.0337 147.21 65.9454 150.746 69.4857C154.281 73.026 156.054 81.4258 154.95 88.0622C153.846 94.6986 147.21 99.5626 147.21 99.5626C147.21 99.5626 148.538 111.507 145.217 116.815C144.824 117.447 144.466 118.035 144.146 118.579C144.146 118.579 143.124 127.249 142.772 131.925C142.419 136.601 143.495 154.958 143.495 162.876C143.495 170.795 147.81 203.542 147.81 203.542" fill="#EDA61A" fill-opacity="0.83"/>
<path d="M102.344 204.28L101.886 204.243C101.918 203.863 105.124 166.412 105.124 161.796C105.124 157.179 102.99 146.476 102.967 146.366C102.967 146.324 101.167 140.256 100.462 138.488C100.334 138.172 100.137 137.746 99.9076 137.251C98.7763 134.824 97.0725 131.16 98.3229 129.282C98.4627 129.021 98.6669 128.8 98.9162 128.639C99.1654 128.479 99.4515 128.385 99.7473 128.366C100.462 128.366 101.121 128.952 101.511 129.415C101.452 127.37 101.217 125.333 100.81 123.328C100.123 120.246 99.8938 115.515 99.8938 115.084C98.7305 111.567 98.1397 105.851 97.7458 102.068C97.6605 100.81 97.4969 99.5588 97.2558 98.3214C96.9885 97.8275 96.6822 97.3558 96.3398 96.9107C94.9383 94.9413 92.3277 91.2682 90.8438 86.134C88.9339 79.5525 92.2956 71.2811 92.6025 70.562C92.6025 70.1727 92.6574 68.13 95.6299 67.072C98.4374 66.0644 102.811 69.7742 103.984 70.8322C104.547 68.588 107.607 57.4769 113.492 53.8221C115.374 52.6542 117.096 52.3153 118.621 52.8053C121.255 53.6618 122.565 56.7625 123.142 58.1685C124.223 56.6342 128.638 50.7947 132.265 51.8023C136.186 52.8924 141.137 60.0463 142.584 63.4355C143.624 65.8538 143.605 69.0094 143.537 70.3834C144.292 69.5865 145.914 68.1392 147.796 68.0247C148.385 67.9983 148.972 68.1021 149.515 68.3285C150.059 68.5549 150.547 68.8984 150.943 69.3346C154.437 72.8291 156.351 81.2426 155.206 88.1126C154.176 94.3001 148.336 99.013 147.485 99.6816C147.627 101.056 148.62 111.869 145.447 116.948C145.057 117.567 144.714 118.134 144.402 118.666C144.32 119.366 143.367 127.519 143.028 131.948C142.822 134.618 143.092 141.896 143.358 148.93C143.55 154.129 143.752 159.501 143.752 162.881C143.752 170.695 148.025 203.185 148.066 203.515L147.608 203.574C147.562 203.249 143.289 170.722 143.289 162.881C143.289 159.51 143.088 154.142 142.895 148.949C142.63 141.9 142.36 134.609 142.57 131.916C142.923 127.285 143.944 118.634 143.944 118.556L143.976 118.464C144.297 117.919 144.654 117.333 145.053 116.696C148.291 111.516 147.022 99.7091 147.008 99.5946V99.4618L147.114 99.3839C147.182 99.3336 153.686 94.4925 154.767 88.0301C155.889 81.2975 154.029 73.0535 150.645 69.6506C150.294 69.2613 149.862 68.954 149.379 68.7506C148.896 68.5471 148.375 68.4525 147.851 68.4735C145.506 68.6109 143.486 71.1528 143.468 71.1757L142.982 71.7986L143.06 71.0154C143.06 70.9696 143.482 66.614 142.19 63.605C140.775 60.2982 135.952 53.2862 132.169 52.2374C128.386 51.1886 123.316 58.6815 123.27 58.7593L123.032 59.112L122.867 58.7227L122.734 58.4021C122.198 57.0922 120.944 54.0328 118.466 53.2267C117.092 52.7687 115.48 53.1076 113.721 54.1977C107.46 58.0815 104.355 71.1711 104.323 71.304L104.231 71.6978L103.943 71.4185C103.888 71.3681 98.703 66.4446 95.7718 67.4888C92.8406 68.5331 93.0238 70.4841 93.0238 70.5666V70.6261V70.6811C92.9872 70.7681 89.3232 79.3098 91.2651 86.0058C92.7353 91.0438 95.3138 94.7078 96.7016 96.6451C97.0691 97.1177 97.394 97.622 97.6725 98.1519C97.8282 98.5412 97.9565 99.7458 98.1946 102.022C98.5839 105.796 99.1748 111.503 100.329 114.974V115.034C100.329 115.084 100.535 120.072 101.245 123.241C101.701 125.503 101.945 127.803 101.973 130.111V130.908L101.547 130.235C101.547 130.235 100.659 128.833 99.7152 128.82C99.499 128.84 99.2915 128.915 99.1121 129.038C98.9327 129.161 98.7873 129.326 98.6893 129.52C97.5809 131.183 99.2893 134.851 100.306 137.045C100.54 137.545 100.741 137.961 100.869 138.305C101.588 140.096 103.324 145.995 103.398 146.242C103.425 146.37 105.568 157.133 105.568 161.782C105.568 166.431 102.376 203.904 102.344 204.28Z" fill="#263238"/>
<path d="M104.231 122.646C104.189 122.653 104.145 122.653 104.103 122.646C103.576 122.472 102.092 119.307 101.254 117.434L101.671 117.246C102.656 119.444 103.846 121.826 104.222 122.183C104.406 121.605 104.486 120.998 104.456 120.392V119.934L105.733 120.896L105.569 119.733L107.336 120.974V119.545H107.794V121.835L106.173 120.69L106.347 121.904L104.904 120.823C104.877 121.46 104.781 122.334 104.446 122.568C104.384 122.615 104.309 122.643 104.231 122.646Z" fill="#263238"/>
<path d="M134.597 130.835L134.789 127.995L132.435 128.838V124.949H132.893V128.188L135.293 127.331L135.142 129.58L137.093 127.478L138.032 128.728L139.653 124.771L140.12 126.342L140.926 123.53L141.366 123.658L140.134 127.968L139.584 126.145L138.151 129.649L137.056 128.192L134.597 130.835Z" fill="#263238"/>
<path d="M137.72 93.5536C135.128 91.2456 132.759 88.6985 130.644 85.9462C127.264 81.5082 121.347 78.8655 116.377 83.7249C111.408 88.5843 106.659 93.3429 103.911 96.9337C101.163 100.524 101.057 107.184 106.022 110.248C110.987 113.312 113.735 110.774 120.71 110.564C127.685 110.353 131.592 113.312 135.503 112.469C139.415 111.626 144.379 106.762 143.111 101.372C142.366 98.1783 140.44 95.3851 137.72 93.5536Z" fill="#263238"/>
<path d="M105.706 77.9175C105.706 77.9175 103.7 73.7955 100.21 72.5268C96.72 71.2582 94.4025 76.2229 93.6605 80.5556C92.9186 84.8883 96.3032 90.4896 100.105 91.8636C103.906 93.2376 107.927 89.537 108.033 86.8989C108.138 84.2608 105.706 77.9175 105.706 77.9175Z" fill="#263238"/>
<path d="M112.255 58.4754C112.255 58.4754 107.501 63.4401 106.448 68.4048C105.394 73.3695 106.974 78.1282 111.413 79.6075C115.851 81.0868 119.336 76.8595 120.71 72.9482C122.084 69.0369 121.347 62.3821 119.652 59.2082C117.957 56.0342 113.419 57.6281 112.255 58.4754Z" fill="#263238"/>
<path d="M127.049 58.0494C127.049 58.0494 125.359 60.9028 124.937 66.7148C124.516 72.5268 126.206 76.6488 128.739 78.6549C131.271 80.6609 135.925 80.2395 138.462 76.6488C140.999 73.0581 140.047 65.7622 138.146 62.9088C136.245 60.0555 132.545 56.6709 130.539 56.3548C128.532 56.0388 127.685 56.5701 127.049 58.0494Z" fill="#263238"/>
<path d="M143.427 74.3222C143.427 74.3222 138.673 80.0289 138.041 84.6776C137.409 89.3263 141.21 93.0269 143.853 93.0269C146.495 93.0269 150.402 91.1216 152.197 85.3096C153.993 79.4976 149.875 73.2642 148.075 72.8428C146.276 72.4215 143.427 74.3222 143.427 74.3222Z" fill="#263238"/>
<path d="M36.2959 118.657C36.2959 118.657 38.6592 121.995 39.9141 121.995C41.169 121.995 41.7461 118.519 41.7461 117.96C41.7461 117.402 36.2959 118.657 36.2959 118.657Z" fill="#263238"/>
<path d="M58.834 127.423C58.834 127.423 61.2018 130.766 62.4522 130.766C63.7025 130.766 64.2613 127.285 64.2613 126.727C64.2613 126.168 58.834 127.423 58.834 127.423Z" fill="#263238"/>
<path d="M73.0276 121.299C73.0276 121.299 75.3955 124.643 76.6458 124.643C77.8961 124.643 78.4778 121.162 78.4778 120.603C78.4778 120.044 73.0276 121.299 73.0276 121.299Z" fill="#263238"/>
<path d="M83.7446 102.095C83.7446 102.095 86.1125 105.434 87.3628 105.434C88.6132 105.434 89.1719 101.958 89.1719 101.399C89.1719 100.84 83.7446 102.095 83.7446 102.095Z" fill="#263238"/>
<path d="M43.4408 -11.5437C43.4408 -11.5437 55.4953 34.4762 56.535 37.7921C57.5746 41.108 66.295 60.8387 69.1987 63.3302C72.1024 65.8217 81.867 78.49 85.3981 83.0562C88.9293 87.6225 89.9781 94.8955 89.3415 100.291C88.7049 105.686 84.5646 103.199 84.5646 103.199V105.897C84.5646 107.142 84.7753 107.142 83.1127 112.336C81.4502 117.53 79.9983 121.038 77.09 122.508C74.1817 123.979 68.5758 120.85 68.5758 120.85C68.5758 120.85 66.5011 126.662 62.9699 128.325C59.4387 129.988 52.1748 125.623 49.8894 124.171C47.604 122.719 44.4896 117.113 44.4896 117.113C44.4896 117.113 41.1737 120.818 37.3768 119.55C33.58 118.281 29.4626 110.687 27.5619 106.575C25.6612 102.462 31.0427 96.4436 31.9953 88.2087C32.948 79.9739 29.1466 66.3667 29.1466 66.3667C29.1466 66.3667 26.4261 54.8205 25.1803 51.9122C23.9345 49.0039 22.0659 50.6665 21.8598 44.0209C21.6537 37.3753 6.1962 6.19009 4.95044 4.09245" fill="#EDA61A" fill-opacity="0.83"/>
<path d="M61.092 128.934C57.3868 128.934 52.1335 125.884 49.7657 124.354C47.723 123.053 45.1032 118.634 44.4437 117.484C43.6285 118.295 40.6789 120.887 37.3035 119.774C33.0258 118.345 28.6015 109.387 27.3557 106.675C26.2703 104.321 27.4153 101.5 28.8717 97.9321C30.0304 95.0879 31.3403 91.8681 31.7663 88.1904C32.6823 80.0975 28.9633 66.5682 28.9221 66.4354C28.8809 66.3026 26.1741 54.8617 24.9695 52.0084C24.668 51.2947 24.1962 50.6657 23.5955 50.1764C22.6475 49.3062 21.7635 48.4818 21.6124 44.0255C21.4246 37.499 5.95338 6.19009 4.75342 4.21153L5.1473 3.97337C6.37474 6.02063 21.8735 37.2333 22.0933 44.0209C22.2261 48.2849 23.0551 49.0589 23.9253 49.8467C24.565 50.3795 25.0676 51.058 25.3909 51.8252C26.6321 54.7198 29.2564 65.8446 29.3663 66.3209C29.403 66.4446 33.1632 80.0609 32.2197 88.2408C31.7892 91.9826 30.4655 95.2345 29.2931 98.1061C27.8824 101.573 26.7695 104.312 27.7679 106.483C30.3098 111.979 34.1799 118.254 37.45 119.339C41.0545 120.539 44.288 116.999 44.32 116.962L44.5353 116.724L44.691 117.003C44.7231 117.063 47.8054 122.577 50.013 123.983C52.761 125.742 59.576 129.676 62.8736 128.105C66.2766 126.502 68.3421 120.814 68.3696 120.777L68.4612 120.521L68.6994 120.653C68.7543 120.686 74.232 123.69 76.9983 122.311C79.6914 120.937 81.1524 117.731 82.9019 112.272C84.3767 107.66 84.3675 107.197 84.3492 106.268C84.3492 106.153 84.3492 106.034 84.3492 105.901V102.801L84.6973 103.007C84.6973 103.007 86.3141 103.959 87.5736 103.336C88.4163 102.92 88.9476 101.889 89.1262 100.272C89.7307 95.065 88.7552 87.769 85.2286 83.2028L84.9446 82.8318C81.3722 78.2106 71.8779 65.9224 69.0658 63.5088C66.1621 61.0218 57.4372 41.4103 56.3288 37.8608C55.3029 34.5723 43.3537 -11.0307 43.23 -11.4887L43.688 -11.6078C43.8071 -11.1498 55.7563 34.4441 56.7822 37.7234C57.8585 41.1767 66.6063 60.7837 69.3772 63.1607C72.226 65.6018 81.4043 77.4778 85.3202 82.5478L85.6042 82.9188C89.2132 87.5858 90.2071 95.0192 89.5979 100.323C89.3918 102.104 88.7827 103.259 87.7888 103.749C86.6805 104.294 85.421 103.854 84.821 103.579V105.901C84.821 106.034 84.821 106.149 84.821 106.258C84.821 107.239 84.853 107.729 83.3554 112.409C81.8577 117.09 80.3417 121.157 77.2182 122.719C74.5435 124.056 69.8352 121.762 68.7223 121.18C68.2643 122.33 66.2903 127.033 63.0934 128.536C62.4641 128.815 61.7804 128.951 61.092 128.934Z" fill="#263238"/>
<path d="M36.7218 64.9194L34.3128 61.1089L32.9891 62.3363L31.5327 59.6341C31.235 60.0417 30.6762 60.6692 30.0763 60.6829C29.9018 60.6823 29.7308 60.6343 29.5815 60.5439C29.4323 60.4535 29.3104 60.3243 29.229 60.17C28.3496 58.8555 28.1298 55.9152 28.1206 55.7915L28.5786 55.7549C28.5786 55.7869 28.7984 58.7044 29.6091 59.9181C29.8152 60.2295 30.003 60.2249 30.0671 60.2249C30.5617 60.2249 31.18 59.3685 31.3587 59.0708L31.5648 58.7273L33.0899 61.6081L34.3906 60.4081L36.2455 63.3439V61.6493H36.7035L36.7218 64.9194Z" fill="#263238"/>
<path d="M52.9763 38.2959L51.2039 38.0715L51.2588 37.618L52.326 37.7509L51.0848 33.8533L52.6649 34.0273L51.1901 30.0198L53.2511 32.0854L50.842 26.2138L51.2634 26.0398L54.5381 34.0227L52.3397 31.8198L53.3519 34.5632L51.7351 34.3846L52.9763 38.2959Z" fill="#263238"/>
<path d="M42.5521 93.4941C42.4193 92.0834 42.3918 91.1766 42.3918 91.1674H42.8498C42.8498 91.1674 42.8773 92.0834 43.0056 93.4574L42.5521 93.4941Z" fill="#263238"/>
<path d="M44.7002 117.209L44.2834 117.026C44.3109 116.957 47.123 110.394 44.9017 104.532C43.8791 101.705 43.1786 98.7723 42.8132 95.7886L43.2712 95.7291C43.6318 98.6766 44.3232 101.574 45.3322 104.367C47.6176 110.408 44.7323 117.141 44.7002 117.209Z" fill="#263238"/>
<path d="M68.3558 116.866C68.1804 115.073 67.8323 113.302 67.3161 111.576C66.2765 108.068 64.2063 103.643 62.5392 100.089C61.5545 97.987 60.7759 96.3245 60.4645 95.3856C59.6446 92.917 57.5791 85.8958 57.5562 85.8271L58.0142 85.6989C58.0142 85.7676 60.0981 92.7796 60.9179 95.239C61.2202 96.155 62.0354 97.8863 62.9743 99.8969C64.646 103.465 66.7253 107.903 67.7741 111.443C68.2924 113.199 68.6405 115.002 68.8138 116.825L68.3558 116.866Z" fill="#263238"/>
<path d="M68.814 120.892L68.356 120.814C68.4674 119.921 68.4996 119.019 68.4521 118.121H68.9101C68.9621 119.045 68.9299 119.973 68.814 120.892Z" fill="#263238"/>
<path d="M75.9175 85.1172C75.3587 84.4119 74.8091 83.7799 74.3282 83.2211C73.4743 82.3248 72.7302 81.3301 72.1115 80.2579L70.8657 77.7663L71.2733 77.5602L72.5191 80.0518C73.1252 81.0888 73.8491 82.0524 74.6763 82.9234C75.1618 83.4822 75.7068 84.1188 76.2793 84.8287L75.9175 85.1172Z" fill="#263238"/>
<path d="M84.3445 103.259C84.3445 103.213 83.2728 98.8343 80.2225 92.088C79.2833 90.0041 78.1241 88.0265 76.7646 86.189L77.131 85.9187C78.5101 87.7722 79.6863 89.7683 80.6393 91.8727C83.7263 98.6695 84.798 103.085 84.8071 103.126L84.3445 103.259Z" fill="#263238"/>
</g>
</g>
<defs>
<filter id="filter0_d_1_2702" x="0.753418" y="0.178223" width="205.247" height="202" filterUnits="userSpaceOnUse" color-interpolation-filters="sRGB">
<feFlood flood-opacity="0" result="BackgroundImageFix"/>
<feColorMatrix in="SourceAlpha" type="matrix" values="0 0 0 0 0 0 0 0 0 0 0 0 0 0 0 0 0 0 127 0" result="hardAlpha"/>
<feOffset dy="4"/>
<feGaussianBlur stdDeviation="2"/>
<feComposite in2="hardAlpha" operator="out"/>
<feColorMatrix type="matrix" values="0 0 0 0 0 0 0 0 0 0 0 0 0 0 0 0 0 0 0.25 0"/>
<feBlend mode="normal" in2="BackgroundImageFix" result="effect1_dropShadow_1_2702"/>
<feBlend mode="normal" in="SourceGraphic" in2="effect1_dropShadow_1_2702" result="shape"/>
</filter>
</defs>
</svg>
