<svg width="31" height="30" viewBox="0 0 31 30" fill="none" xmlns="http://www.w3.org/2000/svg">
<path d="M9.19971 25.8375C10.0847 25.4475 11.0747 25.374 12.0017 25.629C13.1567 25.944 14.3492 26.103 15.5537 26.1C22.4312 26.1 27.5537 21.171 27.5537 14.55C27.5537 7.9305 22.4312 3 15.5537 3C8.67621 3 3.55371 7.9305 3.55371 14.55C3.55371 17.955 4.89771 20.958 7.25271 23.064C7.6806 23.443 8.02661 23.9054 8.26958 24.4228C8.51254 24.9401 8.64734 25.5017 8.66571 26.073L9.19971 25.8375ZM15.5537 0C24.0047 0 30.5537 6.1905 30.5537 14.55C30.5537 22.9095 24.0032 29.1 15.5537 29.1C14.0869 29.1038 12.6263 28.91 11.2112 28.524C10.9454 28.4509 10.6626 28.4716 10.4102 28.5825L7.43271 29.8965C7.25291 29.976 7.05633 30.01 6.86027 29.9957C6.66421 29.9814 6.47467 29.9192 6.30831 29.8144C6.14195 29.7097 6.00387 29.5657 5.90621 29.3951C5.80854 29.2245 5.75429 29.0325 5.74821 28.836L5.66721 26.166C5.66162 26.0035 5.62295 25.8439 5.55357 25.6969C5.48419 25.5499 5.38556 25.4186 5.26371 25.311C2.34621 22.701 0.553711 18.924 0.553711 14.55C0.553711 6.1905 7.10271 0 15.5537 0ZM6.54621 18.8055L10.9517 11.8155C11.1175 11.5523 11.336 11.3264 11.5935 11.1519C11.851 10.9775 12.1418 10.8583 12.4477 10.8019C12.7535 10.7455 13.0678 10.7532 13.3705 10.8244C13.6733 10.8955 13.958 11.0287 14.2067 11.2155L17.7107 13.8405C17.8669 13.9584 18.0573 14.0222 18.253 14.0222C18.4487 14.0222 18.639 13.9584 18.7952 13.8405L23.5277 10.248C24.1592 9.768 24.9842 10.524 24.5612 11.1945L20.1557 18.1845C19.99 18.4477 19.7714 18.6736 19.514 18.8481C19.2565 19.0225 18.9656 19.1417 18.6597 19.1981C18.3539 19.2545 18.0396 19.2468 17.7369 19.1756C17.4341 19.1045 17.1494 18.9713 16.9007 18.7845L13.3967 16.1595C13.2405 16.0416 13.0502 15.9778 12.8545 15.9778C12.6588 15.9778 12.4684 16.0416 12.3122 16.1595L7.57971 19.755C6.94821 20.2335 6.12321 19.4775 6.54621 18.8055Z" fill="white"/>
</svg>
