<svg width="34" height="34" viewBox="0 0 34 34" fill="none" xmlns="http://www.w3.org/2000/svg">
<path fill-rule="evenodd" clip-rule="evenodd" d="M0 17C0 7.6109 7.6109 0 17 0C26.3891 0 34 7.6109 34 17C34 26.3891 26.3891 34 17 34C7.6109 34 0 26.3891 0 17ZM14.0981 20.8981C13.9357 21.0549 13.8062 21.2425 13.7171 21.4499C13.628 21.6573 13.5811 21.8804 13.5792 22.1061C13.5772 22.3318 13.6202 22.5557 13.7057 22.7646C13.7912 22.9735 13.9174 23.1634 14.077 23.323C14.2366 23.4826 14.4265 23.6088 14.6354 23.6943C14.8443 23.7798 15.0682 23.8228 15.2939 23.8208C15.5196 23.8189 15.7427 23.772 15.9501 23.6829C16.1575 23.5938 16.3451 23.4643 16.5019 23.3019L21.6019 18.2019C21.9206 17.8831 22.0996 17.4508 22.0996 17C22.0996 16.5492 21.9206 16.1169 21.6019 15.7981L16.5019 10.6981C16.3451 10.5357 16.1575 10.4062 15.9501 10.3171C15.7427 10.228 15.5196 10.1811 15.2939 10.1792C15.0682 10.1772 14.8443 10.2202 14.6354 10.3057C14.4265 10.3912 14.2366 10.5174 14.077 10.677C13.9174 10.8366 13.7912 11.0265 13.7057 11.2354C13.6202 11.4443 13.5772 11.6682 13.5792 11.8939C13.5811 12.1196 13.628 12.3427 13.7171 12.5501C13.8062 12.7575 13.9357 12.9451 14.0981 13.1019L17.9962 17L14.0981 20.8981Z" fill="white"/>
</svg>
