<svg width="30" height="30" viewBox="0 0 30 30" fill="none" xmlns="http://www.w3.org/2000/svg">
<path d="M29 29L21.9127 21.9127M21.9127 21.9127C23.0502 20.7751 23.9526 19.4246 24.5682 17.9384C25.1838 16.4521 25.5007 14.8591 25.5007 13.2504C25.5007 11.6416 25.1838 10.0486 24.5682 8.56235C23.9526 7.07606 23.0502 5.72559 21.9127 4.58804C20.7751 3.45049 19.4246 2.54814 17.9384 1.9325C16.4521 1.31686 14.8591 1 13.2504 1C11.6416 1 10.0486 1.31686 8.56235 1.9325C7.07606 2.54814 5.7256 3.4505 4.58805 4.58805C2.29066 6.88543 1 10.0014 1 13.2504C1 16.4993 2.29066 19.6153 4.58805 21.9127C6.88543 24.21 10.0014 25.5007 13.2504 25.5007C16.4993 25.5007 19.6153 24.21 21.9127 21.9127Z" stroke="white" stroke-width="2" stroke-linecap="round" stroke-linejoin="round"/>
</svg>
